<svg xmlns="http://www.w3.org/2000/svg" xmlns:xlink="http://www.w3.org/1999/xlink" width="48" height="37" viewBox="0 0 48 37">
  <defs>
    <clipPath id="clip-Artboard_1">
      <rect width="48" height="37"/>
    </clipPath>
  </defs>
  <g id="Artboard_1" data-name="Artboard – 1" clip-path="url(#clip-Artboard_1)">
    <g id="Youtube" transform="translate(-4.243 -76.607)">
      <g id="Rectangle_1789" data-name="Rectangle 1789" transform="translate(7.603 79.997)" fill="none" stroke="#fff" stroke-width="2">
        <rect width="41.28" height="28.716" rx="2" stroke="none"/>
        <rect x="1" y="1" width="39.28" height="26.716" rx="1" fill="none"/>
      </g>
      <g id="Polygon_1" data-name="Polygon 1" transform="translate(37.951 85.498) rotate(90)" fill="#fff">
        <path d="M 13.97089195251465 13.95967864990234 L 3.482072353363037 13.95967864990234 C 2.959632396697998 13.95967864990234 2.70161247253418 13.60865879058838 2.614932298660278 13.45773887634277 C 2.528252363204956 13.30681896209717 2.355052471160889 12.90707874298096 2.618292331695557 12.45580863952637 L 7.862702369689941 3.465399026870728 C 8.123912811279297 3.017618894577026 8.55378246307373 2.969269037246704 8.726482391357422 2.969269037246704 C 8.899182319641113 2.969269037246704 9.329051971435547 3.017618894577026 9.590262413024902 3.465399026870728 L 14.83467197418213 12.45580863952637 C 15.09791278839111 12.90707874298096 14.92471218109131 13.30681896209717 14.83803272247314 13.45773887634277 C 14.75135231018066 13.60865879058838 14.493332862854 13.95967864990234 13.97089195251465 13.95967864990234 Z" stroke="none"/>
        <path d="M 8.726482391357422 3.969268798828125 L 3.482072830200195 12.95967864990234 L 13.97088241577148 12.95967864990234 L 8.726482391357422 3.969268798828125 M 8.726482391357422 1.969271659851074 C 9.397322654724121 1.969271659851074 10.06816291809082 2.300024032592773 10.45404243469238 2.961528778076172 L 15.69844245910645 11.95193862915039 C 16.47621154785156 13.28524875640869 15.51447200775146 14.95967864990234 13.97089195251465 14.95967864990234 L 3.482072830200195 14.95967864990234 C 1.938492774963379 14.95967864990234 0.9767532348632812 13.28524875640869 1.754512786865234 11.95193862915039 L 6.998922348022461 2.961528778076172 C 7.38480281829834 2.300024032592773 8.055642127990723 1.969271659851074 8.726482391357422 1.969271659851074 Z" stroke="none" fill="#fff"/>
      </g>
    </g>
  </g>
</svg>
