<svg xmlns="http://www.w3.org/2000/svg" width="17" height="18" viewBox="0 0 17 18"><rect width="17" height="18" fill="none"/><path d="M6.629,3a1.519,1.519,0,0,0-.945.342l-.04.02-.02.021L3.614,5.456l.02.019a2.02,2.02,0,0,0-.543,2.174v.02a20.229,20.229,0,0,0,4.664,7.306,21.241,21.241,0,0,0,7.3,4.669h.02A2.307,2.307,0,0,0,17.3,19.2l2.03-2.033a1.442,1.442,0,0,0,0-1.993L16.721,12.56l-.021-.041a1.463,1.463,0,0,0-2.01,0L13.4,13.807A10.406,10.406,0,0,1,10.77,12,8.179,8.179,0,0,1,8.981,9.38l1.287-1.288a1.375,1.375,0,0,0-.021-1.972l.02-.021-.06-.06L7.634,3.383l-.02-.02-.041-.021A1.515,1.515,0,0,0,6.629,3Zm0,1.288a.225.225,0,0,1,.141.061L9.343,6.984l.06.061a.128.128,0,0,1-.041.141L7.755,8.8l-.3.282.142.4a10.44,10.44,0,0,0,2.291,3.462l.141.12a12.944,12.944,0,0,0,3.256,2.113l.4.182,1.91-1.913c.111-.11.09-.11.2,0l2.634,2.638c.111.11.111.07,0,.18l-1.97,1.973a.934.934,0,0,1-.984.182A19.849,19.849,0,0,1,8.659,14.07,19.1,19.1,0,0,1,4.3,7.227a.817.817,0,0,1,.2-.846l.04-.041L6.49,4.348a.225.225,0,0,1,.14-.061Z" transform="translate(-2.973 -3)" fill="#1da1f2"/></svg>