<svg xmlns="http://www.w3.org/2000/svg" width="107.855" height="86.5" viewBox="0 0 107.855 86.5"><defs><style>.a{fill:#a8c0e2;}.b{fill:#7c98c0;}.c{fill:#f7f9fc;}.d{fill:#142467;}.e{fill:#121310;}.f{fill:#ffb48b;}.g{fill:#fbf7f4;}.h{fill:#0c1027;}.i{fill:#f6c551;}.j{fill:#daaf48;}.k{fill:#00122d;}.l{fill:#9e552d;}.m{fill:#03122c;}.n{fill:#b24d22;}.o{fill:#c12b27;}.p{fill:#f0f0f0;}.q{fill:#4e2a11;}.r{fill:#5db082;}.s,.t,.w{fill:none;}.t{stroke:#fafafa;stroke-linecap:round;stroke-linejoin:round;stroke-width:0.2px;}.u{fill:#fafafd;}.v{fill:#ff5e5e;}.w{stroke:#ff5e5e;stroke-width:0.1px;}</style></defs><g transform="translate(0 0.401)"><g transform="translate(0 -0.401)"><rect class="a" width="96.59" height="67.568" rx="1" transform="translate(5.685 14.526)"/><path class="b" d="M861.635,2005.676h-92.05a2.88,2.88,0,0,1-2.795-2.951v-62.776a2.879,2.879,0,0,1,2.795-2.949h92.051a2.88,2.88,0,0,1,2.8,2.951v62.775A2.881,2.881,0,0,1,861.635,2005.676Zm-92.05-67.567a1.8,1.8,0,0,0-1.745,1.84v62.776a1.8,1.8,0,0,0,1.745,1.841h92.05a1.8,1.8,0,0,0,1.745-1.841v-62.776a1.8,1.8,0,0,0-1.745-1.84Z" transform="translate(-761.631 -1923.027)"/><rect class="c" width="89.74" height="60.962" rx="2" transform="translate(9.11 18.162)"/><g transform="translate(10.677)"><path class="d" d="M1237.584,2528.454s-5.232.949-4.742,3.345C1232.842,2531.8,1236.459,2534.015,1237.584,2528.454Z" transform="translate(-1225.462 -2495.935)"/><path class="e" d="M1521.211,2866.52s-1.887,12.178-.068,19.75l29.532.1a23.766,23.766,0,0,0-1.067-12.186l-1.442-9.971Z" transform="translate(-1491.006 -2807.465)"/><path class="f" d="M1885.019,2979.058l-2.753,6.634s-1.174-6.244-3.066-7.191l1.592-3.14Z" transform="translate(-1822.398 -2910.11)"/><path class="f" d="M1145.545,2403.685l-1.2-2.882a4.129,4.129,0,0,1-2.253-1.467l-1.515-1.918s-.449-.693-.108-.964c0,0-.363-.751-.031-1.111,0,0-.276-1.223.131-1.732l.551-.481a16.319,16.319,0,0,0-3.815-3.014,1.03,1.03,0,0,1-.422-.357c-.144-.218-.207-.514.262-.729a1.05,1.05,0,0,1,.88.01,33.212,33.212,0,0,1,6.106,3.616l.948-.244s2.307-.12,2.451.745a18.783,18.783,0,0,1,.252,3.961l1.324,3.111s-.847,3.619-3.211,4.488Z" transform="translate(-1136.774 -2366.879)"/><path class="g" d="M1629.026,2452.648l.981,6.406,7.947.2s2.651-2.413,2.651-2.553-.781-4.362-.781-4.362-5.882,3.3-8.471-.341Z" transform="translate(-1591.365 -2425.176)"/><path class="f" d="M1627.475,2268.537l-.2,4.762s.185,3.09,1.266,4.149c0,0,4.475,7.645,8.9.611,0,0,1.8-3.236.069-6.189a35.151,35.151,0,0,1-.187-7Z" transform="translate(-1589.744 -2251.931)"/><path class="f" d="M1605.816,2156.543a2.518,2.518,0,0,1,.928-.63.707.707,0,0,1,.906.766c-.145,1.149-.714,4.563-2.316,3.848,0,0-.077,4.384-3.792,5.99a4.944,4.944,0,0,1-4.761-.4,6.953,6.953,0,0,1-2.805-5.635s-1.286-.228-1.226-2.835c0,0-.111-1.687.613-1.322,0,0-.6-7.114,2.682-6.054l8.8,1.9S1606.409,2154.8,1605.816,2156.543Z" transform="translate(-1557.859 -2145.472)"/><path class="h" d="M1604.815,2094.1c.577-1.986-1.359-3.223-3.275-3.946-1.72-.646-3.2-1.377-5.038-1.3a4.417,4.417,0,0,0-3.378,1.361,3,3,0,0,0-.83,1.885,1.031,1.031,0,0,0-1.076.287s.5.165.255.484a1.369,1.369,0,0,0-.152.119,2.3,2.3,0,0,0-.764,1.363,9.088,9.088,0,0,0,.2,4.462l.749,3.333.284.245a10.051,10.051,0,0,1-.347-3.111s.151-3.147,1.7-4.094c0,0,5.339,3.506,9.577,1.322a11.344,11.344,0,0,1,.684,3l-.1,2.592.269-.2s.208-2.311.682-2.463l.612-.172S1606.1,2096.456,1604.815,2094.1Z" transform="translate(-1555.667 -2088.853)"/><path class="i" d="M1263.165,2367.132s-1.865,5.623,5.961,11.188c0,0,7.492-4.867,5.208-11.7l11.214,4.908a7.229,7.229,0,0,1,2.975,1.878s3.716,19.856,3.423,24.653c0,0-2.744,17.929-4.324,21.062a10.148,10.148,0,0,0-3.771-2.5l-1.2-.279,2.272-15.9-1.811-10.054s-.122,8.58.607,11.343c0,0,1.132,6.675-1.714,8.209,0,0-13.9,5.3-25.211-.824a3.4,3.4,0,0,1-1.61-3.2c.13-2.635.116-7.385.254-10.019l-.179-8.375s-9.292,12.191-13.532,11.354a1.176,1.176,0,0,1-.827-.645l-7.669-15.872a5.253,5.253,0,0,0,4.743-3.345l5.549,9.781,7.627-15.966s.448-.675,2.682-1.653C1253.831,2371.161,1262.793,2368.054,1263.165,2367.132Z" transform="translate(-1225.85 -2347.938)"/><path class="j" d="M1610.214,2378.321c-7.824-5.565-5.959-11.188-5.959-11.188a4.443,4.443,0,0,1-1.677,1.049h0s.114,8,7.625,11.689a13.1,13.1,0,0,0,6.722-12.6h0l-1.5-.655C1617.706,2373.454,1610.214,2378.321,1610.214,2378.321Z" transform="translate(-1566.941 -2346.166)"/><path class="g" d="M1602.229,2379.957c-.217.516,4.14-3.606,7.66-.757l0-.476a12.576,12.576,0,0,1-5.085-5.493c-.176-.429-.521-1.931-.669-2.388C1604.06,2370.6,1603.39,2370.385,1602.229,2379.957Z" transform="translate(-1566.611 -2349.969)"/><path class="g" d="M1693.8,2367.592a.8.8,0,0,1-.751-1.1,2.118,2.118,0,0,1,1.138-1.145l.8-.411a5.272,5.272,0,0,0,2.466-2.695c.623-1.529,1.41-3.643.757-5.521-.022-.06-.007-.069.042-.028l.088.07a3.745,3.745,0,0,1,1.149,1.671c.632,1.863,1.9,5.805,1.9,7.4,0,0-3.745-1.462-5.106-.352a3.581,3.581,0,0,0-1.732,1.607.8.8,0,0,1-.747.5Z" transform="translate(-1650.438 -2336.928)"/><circle class="k" cx="0.384" cy="0.384" r="0.384" transform="matrix(0.39, -0.921, 0.921, 0.39, 37.848, 12.906)"/><path class="k" d="M1703.991,2250.475a.385.385,0,1,1-.383-.385A.386.386,0,0,1,1703.991,2250.475Z" transform="translate(-1659.885 -2237.755)"/><g transform="translate(40.339 13.337)"><path class="l" d="M1665.141,2265.959l-.574,0a.541.541,0,0,1-.412-.19.549.549,0,0,1-.126-.436l.288-1.936a.051.051,0,0,1,.058-.042.048.048,0,0,1,.043.056l-.289,1.937a.453.453,0,0,0,.1.357.459.459,0,0,0,.337.155h.574a.051.051,0,0,1,0,.1Z" transform="translate(-1664.023 -2263.351)"/></g><path class="k" d="M1615.836,2230.472a3.044,3.044,0,0,1,2.907-.119.107.107,0,0,1,.066.121c-.019.087-.143.167-.657,0a1.872,1.872,0,0,0-.262-.064,4.1,4.1,0,0,0-2.017.136A.044.044,0,0,1,1615.836,2230.472Z" transform="translate(-1579.164 -2219.243)"/><path class="k" d="M1696.716,2234.151a3.062,3.062,0,0,0-2.907-.141.114.114,0,0,0-.067.127c.02.083.141.165.657.005.086-.024.174-.046.261-.063a4.082,4.082,0,0,1,2.016.153A.045.045,0,0,0,1696.716,2234.151Z" transform="translate(-1651.127 -2222.633)"/><g transform="translate(35.218 10.503)"><g transform="translate(1.01 0.226)"><path class="m" d="M1612.36,2233.226h-.064a2.07,2.07,0,0,1-1.993-2.136,2.065,2.065,0,1,1,2.057,2.136Zm.011-4.033a1.967,1.967,0,1,0,1.965,2.037h0a1.97,1.97,0,0,0-1.9-2.037Z" transform="translate(-1610.301 -2229.094)"/></g><g transform="translate(6.302 0.407)"><path class="m" d="M1681.529,2235.583a.545.545,0,0,1-.066,0,2.061,2.061,0,0,1-1.992-2.133,2.065,2.065,0,1,1,2.058,2.135Zm.01-4.035a1.969,1.969,0,1,0,1.963,2.037h0a1.972,1.972,0,0,0-1.9-2.034Z" transform="translate(-1679.47 -2231.454)"/></g><g transform="translate(4.955 1.329)"><path class="m" d="M1663.383,2243.9a1.142,1.142,0,0,0-1.459-.049l-.058-.076a1.237,1.237,0,0,1,1.584.055Z" transform="translate(-1661.866 -2243.506)"/></g><g transform="translate(10.344 0.553)"><path class="m" d="M1732.349,2235.078l-.049-.082,2.658-1.628,0,.107Z" transform="translate(-1732.3 -2233.367)"/></g><path class="m" d="M1598.111,2228.382l-1.017-2.2.039-.042,1.064,2.2Z" transform="translate(-1597.094 -2226.137)"/></g><g transform="translate(39.01 17.208)"><path class="n" d="M1646.725,2321.581a2.785,2.785,0,0,0,4.185.076.207.207,0,0,0-.134-.362l-3.9-.065A.206.206,0,0,0,1646.725,2321.581Z" transform="translate(-1646.665 -2321.23)"/><path class="o" d="M1658.806,2329.849a2.782,2.782,0,0,0-2.635-.14A2.544,2.544,0,0,0,1658.806,2329.849Z" transform="translate(-1655.443 -2328.811)"/><path class="p" d="M1652.541,2321.371a.2.2,0,0,0-.155-.074l-3.9-.066a.241.241,0,0,0-.079.013A5.2,5.2,0,0,0,1652.541,2321.371Z" transform="translate(-1648.273 -2321.23)"/></g><path class="k" d="M1636.772,2307.125a6.212,6.212,0,0,1,5.845.17l-.068.245a10.678,10.678,0,0,0-5.75-.222Z" transform="translate(-1598.519 -2290.361)"/><g transform="translate(4.272 25.261)"><g transform="translate(0 1.522)"><path class="q" d="M1197.257,2453.747a.974.974,0,0,1-.289-.051.023.023,0,0,1-.013-.007c-.019-.014-1.875-1.374-2.632-1.2l-1.152.364a.046.046,0,0,1-.06-.03.048.048,0,0,1,.031-.062l1.154-.365h0c.782-.181,2.564,1.109,2.7,1.212.348.109.577.017.694-.287a.935.935,0,0,0-.313-1.063,8.871,8.871,0,0,0-3.172-1.614,5.49,5.49,0,0,0-1.533.953.048.048,0,1,1-.06-.075c.135-.105,1.321-1.022,1.61-.973a8.946,8.946,0,0,1,3.212,1.633,1.023,1.023,0,0,1,.344,1.172A.548.548,0,0,1,1197.257,2453.747Z" transform="translate(-1192.605 -2450.546)"/></g><g transform="translate(0.96 4.578)"><path class="q" d="M1208.23,2491.79a3.521,3.521,0,0,1-1.878-.777,1.5,1.5,0,0,1-1.167.256.048.048,0,1,1,.019-.094,1.408,1.408,0,0,0,1.112-.261.047.047,0,0,1,.064,0c.015.011,1.494,1.211,2.515.609.039-.076.24-.543-.356-.943a.047.047,0,0,1-.013-.066.05.05,0,0,1,.067-.011.808.808,0,0,1,.379,1.08.077.077,0,0,1-.017.017A1.36,1.36,0,0,1,1208.23,2491.79Z" transform="translate(-1205.146 -2490.493)"/></g><g transform="translate(0.005)"><path class="q" d="M1192.715,2431.852a.051.051,0,0,1-.033-.013.045.045,0,0,1,0-.066c.044-.048,1.085-1.121,1.607-1.118a2.807,2.807,0,0,1,1.969.943.049.049,0,0,1,0,.069.05.05,0,0,1-.068,0,2.771,2.771,0,0,0-1.9-.916c-.483,0-1.53,1.076-1.54,1.088A.053.053,0,0,1,1192.715,2431.852Z" transform="translate(-1192.667 -2430.654)"/></g><g transform="translate(4.048 1.536)"><path class="q" d="M1245.559,2451.933a.049.049,0,0,1-.047-.048.047.047,0,0,1,.048-.05,1.786,1.786,0,0,0,1.631-1.072.047.047,0,0,1,.062-.031.048.048,0,0,1,.03.063,1.887,1.887,0,0,1-1.723,1.139Z" transform="translate(-1245.511 -2450.728)"/></g><g transform="translate(5.182 2.396)"><path class="q" d="M1260.933,2462.318a.79.79,0,0,1-.588-.267.048.048,0,0,1,0-.068.051.051,0,0,1,.067,0,.686.686,0,0,0,.762.194.048.048,0,0,1,.039.088A.792.792,0,0,1,1260.933,2462.318Z" transform="translate(-1260.332 -2461.972)"/></g><g transform="translate(3.174 0.564)"><path class="q" d="M1234.232,2439.743a.045.045,0,0,1-.043-.031,1.083,1.083,0,0,1,.009-.942,1.862,1.862,0,0,1,1.133-.75.05.05,0,0,1,.057.037.048.048,0,0,1-.037.058,1.774,1.774,0,0,0-1.067.706.992.992,0,0,0-.005.858.049.049,0,0,1-.026.063A.068.068,0,0,1,1234.232,2439.743Z" transform="translate(-1234.087 -2438.02)"/></g></g></g><path class="b" d="M.261,1592.7H107.594c.144,0,.261.057.261.129v1.33c0,1.283-2.116,2.324-4.727,2.324H3.98c-2.2,0-3.98-.877-3.98-1.958v-1.7C0,1592.757.117,1592.7.261,1592.7Z" transform="translate(0 -1509.983)"/><path class="a" d="M875.294,1592.89h18.757a.168.168,0,0,1,.164.172v1.079a2.456,2.456,0,0,1-2.388,2.52h-14.26a2.507,2.507,0,0,1-2.437-2.571v-1.027A.168.168,0,0,1,875.294,1592.89Z" transform="translate(-830.767 -1510.162)"/><rect class="a" width="57.572" height="2.416" transform="translate(23.915 79.124)"/><g transform="translate(47.633 65.661)"><circle class="r" cx="5.812" cy="5.812" r="5.812" transform="translate(0 0)"/><g transform="translate(3.479 3.336)"><rect class="s" width="5.768" height="5.768"/><g transform="translate(0 0.928)"><path class="t" d="M5.144,10.2v.219a.486.486,0,0,1-.486.486H1.986a.486.486,0,0,1-.486-.486V7.986A.486.486,0,0,1,1.986,7.5H3.9m-.049,0h.811a.486.486,0,0,1,.486.486v.878l.243.243L6.844,8.053v2.313l-1.7-.987" transform="translate(-1.5 -7.5)"/></g></g></g><g transform="translate(65.982 67.99)"><path class="u" d="M7.484,10.967a3.484,3.484,0,1,1,3.484-3.484A3.488,3.488,0,0,1,7.484,10.967Zm0-6.387a2.9,2.9,0,1,0,2.9,2.9A2.906,2.906,0,0,0,7.484,4.581Z" transform="translate(-4 -4)"/><rect class="v" width="2.706" height="2.706" rx="1" transform="translate(2.139 2.122)"/></g><g transform="translate(38.369 69.056)"><path class="v" d="M1939.053,2955.3a.547.547,0,0,1,.547.545v1.567a.547.547,0,0,1-1.094,0v-1.567a.546.546,0,0,1,.547-.545m0-.228h0a.772.772,0,0,0-.772.772v1.563a.773.773,0,0,0,.772.774h0a.773.773,0,0,0,.771-.774v-1.562A.772.772,0,0,0,1939.053,2955.07Z" transform="translate(-1937.411 -2955.07)"/><path class="v" d="M1924.15,2987.177a.113.113,0,0,1-.115-.113v-1.475a1.646,1.646,0,0,1-1.526-1.638v-.465a.116.116,0,0,1,.115-.115.115.115,0,0,1,.113.115v.465a1.415,1.415,0,0,0,1.414,1.413h.113v1.7A.113.113,0,0,1,1924.15,2987.177Z" transform="translate(-1922.509 -2981.813)"/><path class="v" d="M1950.334,2985.59a.113.113,0,1,1,0-.227,1.414,1.414,0,0,0,1.412-1.413v-.465a.113.113,0,1,1,.227,0v.465A1.639,1.639,0,0,1,1950.334,2985.59Z" transform="translate(-1948.694 -2981.813)"/><path class="v" d="M1939.157,3048.309h-1.378a.13.13,0,0,1,0-.259h1.378a.13.13,0,0,1,0,.259Z" transform="translate(-1936.816 -3042.927)"/></g><line class="w" x1="5.284" y2="4.227" transform="translate(37.727 69.642)"/></g></g></svg>