<svg xmlns="http://www.w3.org/2000/svg" width="106.52" height="86.437" viewBox="0 0 106.52 86.437"><defs><style>.a{fill:#ffcd56;}.b{fill:#fff;}.c{fill:#1f2144;}.d{fill:#a4dcf2;}.e{fill:#75d8fe;}.f{opacity:0.8;}.g{fill:#ced3e6;}.h{fill:#2b478b;}.i{fill:#f7a491;}.j{fill:#233862;}.k{fill:#0f192e;}.l{fill:#13375b;}.m{fill:#ebb12b;}.n{fill:#39393b;}.o{fill:#f47458;}.p{fill:#f7cc7f;}</style></defs><g transform="translate(-312.067 -423.48)"><g transform="translate(329.159 423.48)"><ellipse class="a" cx="42.675" cy="41.936" rx="42.675" ry="41.936" transform="translate(2.172 1.532)"/><path class="b" d="M2469.62,1458.077a43.015,43.015,0,0,0,24.483-7.583,43.166,43.166,0,0,0-5.135-7.1c-5.381-6.117-12.085-11.318-16.073-18.509-5.163-9.3-3.4-20.362-4.248-30.509-.622-7.27-2.858-14.077-7.442-19.336a42.34,42.34,0,0,0-33.488,33.242c-.082,1.027-.147,2.058-.194,3.085-.157,3.609-.153,7.228-.118,10.858C2430.478,1442.812,2448.447,1458.069,2469.62,1458.077Z" transform="translate(-2424.936 -1372.831)"/><path class="c" d="M2466.334,1456.188a45.221,45.221,0,0,1-31.582-12.625,42.208,42.208,0,0,1,0-61.191,45.828,45.828,0,0,1,63.165,0,42.206,42.206,0,0,1,0,61.191A45.211,45.211,0,0,1,2466.334,1456.188Zm0-83.982a42.892,42.892,0,0,0-29.95,11.961,39.695,39.695,0,0,0,0,57.6,43.464,43.464,0,0,0,59.919,0,39.682,39.682,0,0,0,0-57.6A42.882,42.882,0,0,0,2466.334,1372.206Z" transform="translate(-2421.621 -1369.751)"/><path class="c" d="M2501.729,1431.8l-2.238,1.251-18.054-30.71a1.233,1.233,0,0,1-.136-.968,1.264,1.264,0,0,1,.614-.771h0a1.32,1.32,0,0,1,1-.125,1.281,1.281,0,0,1,.788.611Z" transform="translate(-2455.915 -1387.618)"/><path class="c" d="M2527.233,1462.312l-.6-2.472,35.111-8.265a1.3,1.3,0,0,1,.981.147,1.259,1.259,0,0,1,.579.794h0a1.224,1.224,0,0,1-.153.965,1.267,1.267,0,0,1-.808.568Z" transform="translate(-2482.004 -1417.383)"/><path class="c" d="M2592.4,1475.975v-2.665h7.975a1.346,1.346,0,0,1,1.357,1.334h0a1.344,1.344,0,0,1-1.357,1.332Z" transform="translate(-2519.823 -1430.063)"/><path class="c" d="M2523.06,1538.11h2.588v8.353a1.265,1.265,0,0,1-1.274,1.252h0a1.279,1.279,0,0,1-.915-.358,1.246,1.246,0,0,1-.385-.894Z" transform="translate(-2479.95 -1467.803)"/><path class="c" d="M2527.147,1396.714h-2.587v-8.353a1.244,1.244,0,0,1,.378-.893,1.3,1.3,0,0,1,.915-.359h0a1.265,1.265,0,0,1,1.276,1.252Z" transform="translate(-2480.815 -1379.861)"/><path class="c" d="M2449.063,1476.649V1474h-7.977a1.344,1.344,0,0,0-1.355,1.332h0a1.344,1.344,0,0,0,1.355,1.333Z" transform="translate(-2432.036 -1430.464)"/><ellipse class="c" cx="3.285" cy="3.383" rx="3.285" ry="3.383" transform="translate(41.065 40.946)"/><path class="c" d="M2579,1507.16a40.533,40.533,0,0,1-9.738,14.59,42.5,42.5,0,0,1-20.481,10.938,6.67,6.67,0,0,1-.311,2.574,44.878,44.878,0,0,0,22.42-11.719,42.98,42.98,0,0,0,10.413-15.688A5.922,5.922,0,0,1,2579,1507.16Z" transform="translate(-2494.56 -1449.778)"/></g><g transform="translate(312.067 430.772)"><g transform="translate(0 0)"><g transform="translate(10.363 20.508)"><g transform="translate(21.916 3.49)"><path class="d" d="M633.224,269.534s8.365,11.35,10.273,17-2.723,9.669-2.723,9.669l-4.3,1.614S632.053,277.857,633.224,269.534Z" transform="translate(-633.027 -269.534)"/></g><g transform="translate(0.863 1.244)"><path class="e" d="M588.354,296.615c-3.657,1.212-12.588,4.39-16.47,3.1a3.665,3.665,0,0,1-.463-.188,2.44,2.44,0,0,1-1-.845c-1.521-2.317-3.03-12.033-2.352-17.745.085-.713.126-1.488.14-2.3.02-1.2-.02-2.479-.071-3.769-.191-4.851-.955-8.2,1.119-9.379a24.223,24.223,0,0,1,5.723-2.245,16.191,16.191,0,0,1,3.523-.668l4.626.841s3.992.666,4.913,1.346,1.392,3.673,3.056,6.415a8.016,8.016,0,0,1,.436,8.5c-1.383,2.618-1.14,1.625-1.32,5.922C589.991,290.868,595.493,294.25,588.354,296.615Z" transform="translate(-567.842 -262.578)"/></g><g transform="translate(7.012 25.379)"><g class="f"><path class="g" d="M586.959,340.947a.191.191,0,0,1-.05-.056.2.2,0,0,1,.066-.268,23.031,23.031,0,0,1,9.219-3.175,16.868,16.868,0,0,1,4.064-.043.2.2,0,1,1-.058.386,16.858,16.858,0,0,0-3.976.047,22.638,22.638,0,0,0-9.047,3.119A.2.2,0,0,1,586.959,340.947Z" transform="translate(-586.88 -337.308)"/></g></g><path class="d" d="M576.915,295.768a23.247,23.247,0,0,1-8.3-5.014q-.241-.222-.465-.44c-1.053-1.022-1.795-.5-2.117-1.086-1.23-2.252-.532-11.085,0-14.329s-1.706-9.187-.5-11.312,5.354-2.867,5.354-2.867-.587-.685.527-1.468,4.08-.459,4.08-.459C575.632,272.833,577.621,285.874,576.915,295.768Z" transform="translate(-565.169 -258.727)"/><g transform="translate(17.108 0.752)"><path class="d" d="M627.037,291.215a10.1,10.1,0,0,1-5.54,5.833c-.541-10.709-1.771-22.939-3.356-35.949,0,0,1.669-.294,2.365.661a2.653,2.653,0,0,1,.364,1.107,8.624,8.624,0,0,1,1.787.6c.934.435.827,1.033,1.05,2.55s2.567,3.866,3.329,7.048-1.259,5.21-1.89,7.879S627.037,291.215,627.037,291.215Z" transform="translate(-618.141 -261.056)"/></g></g><g transform="translate(10.135 47.5)"><path class="h" d="M575.672,355.593a10.105,10.105,0,0,0,2.758,1.236c7.492,2.384,14.362-1.464,14.362-1.464.416-2.052.158-4.384-.533-5.237a.752.752,0,0,0,.074-.666l6.9-7.158c-3.921,3.249-8.771,4.313-12.547,6.595h0c-1.088.658-2.066,1.237-2.783,1.639a6.218,6.218,0,0,1-3.858.486,18.825,18.825,0,0,1-5.225-1.682s-8.587-3.892-10.2-3.762C563.364,345.679,570.1,352.713,575.672,355.593Z" transform="translate(-564.464 -342.304)"/></g><g transform="translate(0 49.25)"><g transform="translate(30.19 12.982)"><g transform="translate(0 3.203)"><path class="i" d="M630.984,399.188a9,9,0,0,1-2.889-1.353l-1.536,3.616,5.228,1.632S631.861,399.907,630.984,399.188Z" transform="translate(-626.56 -397.836)"/></g><g transform="translate(3.494)"><path class="j" d="M650.927,402.923l-6.759-15a2.3,2.3,0,0,0-.922.178,26.829,26.829,0,0,0-4.342,2.569c-.138.091-.268.174-.387.247a4.754,4.754,0,0,1-.5.279c-1.042.47-.493,1.032-.493,1.032,1.943.971.76,3.852,1.944,4.525,0,0,.5.293,2.113,1s3.228,2.415,4.727,3.814c1.933,1.807,3.147,2.019,3.843,1.855A1.289,1.289,0,0,0,650.927,402.923Z" transform="translate(-637.378 -387.918)"/><g transform="translate(5.868)"><path class="k" d="M663.227,402.923l-6.759-15a2.3,2.3,0,0,0-.922.178l6.9,15.323A1.288,1.288,0,0,0,663.227,402.923Z" transform="translate(-655.546 -387.918)"/></g><g transform="translate(4.454 9.023)"><path class="b" d="M651.686,416.014a.271.271,0,0,0-.514.16l.189,1.042a.271.271,0,0,0,.534-.1l-.19-1.042A.263.263,0,0,0,651.686,416.014Z" transform="translate(-651.167 -415.855)"/></g><g transform="translate(3.254 8.443)"><path class="b" d="M647.971,414.219a.271.271,0,0,0-.514.16l.189,1.042a.271.271,0,1,0,.534-.1l-.19-1.042A.273.273,0,0,0,647.971,414.219Z" transform="translate(-647.452 -414.059)"/></g><g transform="translate(5.42 9.714)"><path class="b" d="M654.68,418.156a.271.271,0,0,0-.514.16l.19,1.042a.271.271,0,0,0,.533-.1l-.19-1.042A.263.263,0,0,0,654.68,418.156Z" transform="translate(-654.161 -417.996)"/></g><g transform="translate(6.366 10.415)"><path class="b" d="M657.609,420.327a.271.271,0,0,0-.514.16l.189,1.042a.271.271,0,0,0,.534-.1l-.19-1.042A.267.267,0,0,0,657.609,420.327Z" transform="translate(-657.09 -420.167)"/></g><g transform="translate(7.311 11.219)"><path class="b" d="M660.533,422.815a.271.271,0,0,0-.514.16l.19,1.042a.271.271,0,1,0,.533-.1l-.189-1.042A.28.28,0,0,0,660.533,422.815Z" transform="translate(-660.015 -422.656)"/></g><g transform="translate(8.223 12.141)"><path class="b" d="M663.358,425.67a.271.271,0,0,0-.514.16l.19,1.042a.271.271,0,1,0,.534-.1l-.19-1.042A.261.261,0,0,0,663.358,425.67Z" transform="translate(-662.839 -425.51)"/></g></g></g><path class="h" d="M543.369,349.246s-5.434-2.933-8.582-.666c-5.757,4.146,4.011,12.121,15.185,16.015s14.8,3.363,14.8,3.363,2.428-.668,1.567-4.6c0,0-6.441-2.449-9.792-5.014S550.911,352.635,543.369,349.246Z" transform="translate(-533.081 -347.721)"/><g transform="translate(30.413 15.023)"><path class="h" d="M629.217,394.327a10.5,10.5,0,0,1-1.968,5.389,1.939,1.939,0,0,0,1.914.2c.7-.395,2.043-3.625,1.531-5.349A1.661,1.661,0,0,0,629.217,394.327Z" transform="translate(-627.249 -394.236)"/></g></g><g transform="translate(6.368 46.332)"><g transform="translate(0 16.236)"><g transform="translate(11.279 2.621)"><path class="i" d="M588.277,398.263s2.222-.429,2.851-1.19l1.774,3.505-5.107,1.977S587.451,399.039,588.277,398.263Z" transform="translate(-587.724 -397.073)"/></g><path class="j" d="M552.8,404.391l5.741-15.42a2.3,2.3,0,0,1,.932.116,26.819,26.819,0,0,1,4.5,2.273c.144.082.279.156.4.221a4.735,4.735,0,0,0,.519.245c1.071.4.625.7.625.7-2.111.991-.565,4.19-1.7,4.941,0,0-.484.326-2.041,1.14s-3.059,2.625-4.461,4.121c-1.808,1.932-3.006,2.226-3.71,2.107A1.285,1.285,0,0,1,552.8,404.391Z" transform="translate(-552.8 -388.958)"/><path class="k" d="M552.8,404.391l5.741-15.42a2.3,2.3,0,0,1,.932.116l-5.864,15.749A1.285,1.285,0,0,1,552.8,404.391Z" transform="translate(-552.8 -388.958)"/><g transform="translate(8.032 8.873)"><path class="b" d="M577.806,416.608a.271.271,0,0,1,.524.126l-.119,1.052a.271.271,0,1,1-.539-.061l.12-1.052A.26.26,0,0,1,577.806,416.608Z" transform="translate(-577.669 -416.432)"/></g><g transform="translate(9.19 8.214)"><path class="b" d="M581.392,414.569a.271.271,0,0,1,.524.125l-.12,1.052a.271.271,0,0,1-.539-.061l.12-1.052A.3.3,0,0,1,581.392,414.569Z" transform="translate(-581.255 -414.393)"/></g><g transform="translate(7.113 9.628)"><path class="b" d="M574.962,418.945a.271.271,0,0,1,.523.125l-.12,1.052a.271.271,0,1,1-.539-.061l.119-1.052A.242.242,0,0,1,574.962,418.945Z" transform="translate(-574.825 -418.769)"/></g><g transform="translate(6.216 10.391)"><path class="b" d="M572.184,421.307a.271.271,0,0,1,.524.125l-.12,1.052a.271.271,0,0,1-.539-.061l.12-1.052A.272.272,0,0,1,572.184,421.307Z" transform="translate(-572.047 -421.131)"/></g><g transform="translate(5.328 11.255)"><path class="b" d="M569.432,423.985a.271.271,0,0,1,.523.125l-.12,1.052a.271.271,0,1,1-.539-.061l.12-1.052A.25.25,0,0,1,569.432,423.985Z" transform="translate(-569.296 -423.809)"/></g><g transform="translate(4.479 12.237)"><path class="b" d="M566.8,427.022a.271.271,0,0,1,.524.126l-.12,1.052a.271.271,0,1,1-.539-.061l.12-1.052A.276.276,0,0,1,566.8,427.022Z" transform="translate(-566.668 -426.846)"/></g></g><g transform="translate(14.674)"><path class="h" d="M619.88,340.747s5.143-3.419,8.485-1.45c6.113,3.6-2.882,12.438-13.652,17.34s-14.43,4.707-14.43,4.707-2.479-.442-1.982-4.439c0,0,6.189-3.029,9.291-5.891S612.681,344.812,619.88,340.747Z" transform="translate(-598.236 -338.685)"/></g><g transform="translate(14.067 17.562)"><path class="h" d="M597.854,393.119a10.491,10.491,0,0,0,2.454,5.186,1.94,1.94,0,0,1-1.887.378c-.731-.329-2.367-3.422-2.015-5.186A1.661,1.661,0,0,1,597.854,393.119Z" transform="translate(-596.357 -393.063)"/></g></g><g transform="translate(3.835 24.709)"><path class="d" d="M562.358,294.662l-.413,5.9s-7.017-1-10.462-1.88a14.168,14.168,0,0,1-3.16-1.133c-1.9-1.011-3.479-2.77-3.362-6.2a15.732,15.732,0,0,1,.681-3.852,79.649,79.649,0,0,1,6.7-15.764c5.4,2.312,4.949,6.161,4.949,6.161-1.542,4.111-4.949,12.867-4.949,12.867C554.325,293.179,562.358,294.662,562.358,294.662Z" transform="translate(-544.955 -271.735)"/><g transform="translate(4.915 17.576)"><path class="d" d="M562.649,327.792a.181.181,0,0,1-.1-.028,11.086,11.086,0,0,0-2.239-.756.183.183,0,0,1,.084-.357,14.673,14.673,0,0,1,1.95.6,3.264,3.264,0,0,0-.54-.792.183.183,0,0,1,.276-.242,2.83,2.83,0,0,1,.746,1.359.183.183,0,0,1-.181.214Z" transform="translate(-560.172 -326.157)"/></g><g transform="translate(0 19.616)"><path class="d" d="M548.323,338.67c-1.9-1.011-3.479-2.77-3.362-6.2C546.467,333.259,549.093,335.169,548.323,338.67Z" transform="translate(-544.955 -332.471)"/></g><g transform="translate(7.208 6.628)"><path class="d" d="M573.055,307.651a.188.188,0,0,1-.046-.006,14.468,14.468,0,0,1-5.676-2.852.184.184,0,0,1-.041-.22,61.064,61.064,0,0,0,4.936-12.179.183.183,0,1,1,.355.092,61.047,61.047,0,0,1-4.9,12.125,14.633,14.633,0,0,0,5.414,2.679.184.184,0,0,1-.045.361Z" transform="translate(-567.273 -292.257)"/></g><g transform="translate(11.415 7.513)"><path class="d" d="M580.482,296.983a.183.183,0,0,1-.143-.3l1.288-1.619a.183.183,0,1,1,.287.229l-1.287,1.619A.184.184,0,0,1,580.482,296.983Z" transform="translate(-580.299 -294.997)"/></g></g><g transform="translate(17.273 3.802)"><path class="l" d="M590.732,222.532l6.235.891c4.049-.4,5.338-2.014,6-5.418a9.221,9.221,0,0,0-.215-4.345,5.46,5.46,0,0,0-.982-3.114c-2.736-3.3-5.145-3.17-5.145-3.17a7.323,7.323,0,0,0-7.936,2.293h0a9.28,9.28,0,0,0-2.086,5.414C586.245,218.532,588.546,222.937,590.732,222.532Z" transform="translate(-586.565 -206.999)"/></g><g transform="translate(16.633)"><path class="l" d="M592.871,200.312s.648-5.749-4.453-5.02c-3.334.476-5.4,4.993-2.348,7.045S592.871,200.312,592.871,200.312Z" transform="translate(-584.582 -195.228)"/></g><g transform="translate(18.471 3.543)"><path class="m" d="M590.436,210.354a.161.161,0,0,1-.141-.239,7.368,7.368,0,0,1,4.073-3.517,6.66,6.66,0,0,1,2.367-.4.161.161,0,1,1-.019.322,6.987,6.987,0,0,0-6.138,3.746A.161.161,0,0,1,590.436,210.354Z" transform="translate(-590.275 -206.199)"/></g><g transform="translate(18.633 4.768)"><path class="l" d="M594.071,223.261a6.759,6.759,0,0,1-3.195-6.855c.782-4.631,3.831-7.418,8.505-6.075C599.381,210.33,598.928,223.718,594.071,223.261Z" transform="translate(-590.775 -209.992)"/><g transform="translate(12.601 4.754)"><path class="n" d="M631.544,224.712s.406,3.975-.318,4.55-1.435-1-1.435-1S630.779,224.755,631.544,224.712Z" transform="translate(-629.791 -224.712)"/></g><g transform="translate(1.28 1.79)"><g transform="translate(0.626 10.895)"><path class="i" d="M603.837,251.984l-.489,3.287s-2.011,2.58-6.67-1.628c.53-1.338,1.343-3.057,1.135-4.376a7.3,7.3,0,0,0,.926.684q.18.115.385.24A11.655,11.655,0,0,0,603.837,251.984Z" transform="translate(-596.677 -249.266)"/><g transform="translate(2.06 0.684)"><path class="o" d="M608.155,253.418l-.229,1.538a9.964,9.964,0,0,1-4.87-3.572q.18.115.385.24A11.652,11.652,0,0,0,608.155,253.418Z" transform="translate(-603.056 -251.384)"/></g></g><g transform="translate(1.711)"><path class="i" d="M610.578,223.555q-.077.51-.152.962c-.374,2.267-.716,3.488-1.345,3.971-3.187,2.445-8.807-1.876-8.987-2.015l0,0c-.018-.264-.031-.525-.04-.783a20.22,20.22,0,0,1,.691-6,4.573,4.573,0,0,1,3.6-4.06c2.032-.415,3.634.69,4.625,1.164,1.5.717,2.18,2.89,1.759,5.777C610.675,222.912,610.626,223.242,610.578,223.555Z" transform="translate(-600.036 -215.533)"/></g><g transform="translate(6.889 8.716)"><path class="n" d="M618.585,244.467a2.872,2.872,0,0,1-2.5-1.724.162.162,0,0,1,.3-.122h0a2.442,2.442,0,0,0,2.723,1.471.162.162,0,0,1,.061.318A3.091,3.091,0,0,1,618.585,244.467Z" transform="translate(-616.07 -242.52)"/></g><g transform="translate(5.645 3.625)"><path class="n" d="M614.6,227.64a.445.445,0,0,0-.118-.865c-.825-.053-2.148-.033-2.258.632-.162.972,1.377.567,2.348.243Z" transform="translate(-612.216 -226.757)"/></g><g transform="translate(10.32 4.021)"><path class="n" d="M626.835,228.756a.446.446,0,0,1,.458-.744c.777.284,1.978.836,1.811,1.489-.243.955-1.488-.036-2.246-.724Z" transform="translate(-626.691 -227.983)"/></g><g transform="translate(9.143 6.813)"><path class="n" d="M623.113,239.059a.12.12,0,0,1-.06-.069.118.118,0,0,1,.076-.15l.778-.256-.462-.468a.119.119,0,0,1-.033-.1l.143-1.287a.118.118,0,0,1,.235.026l-.137,1.231.556.563a.118.118,0,0,1-.047.2l-.959.316A.118.118,0,0,1,623.113,239.059Z" transform="translate(-623.047 -236.629)"/></g><g transform="translate(7.097 6.333)"><path class="n" d="M617.47,235.863c-.055.367-.265.64-.471.609s-.327-.353-.273-.72.265-.64.471-.61S617.526,235.5,617.47,235.863Z" transform="translate(-616.714 -235.141)"/><g transform="translate(3.632 0.541)"><path class="n" d="M628.717,237.537c-.055.367-.265.64-.471.609s-.327-.353-.273-.72.266-.64.471-.609S628.773,237.17,628.717,237.537Z" transform="translate(-627.961 -236.815)"/></g></g><g transform="translate(1.723 9.628)"><path class="n" d="M601.535,245.345a3.38,3.38,0,0,1-1.416,1.312h0l0,0q-.028-.4-.04-.783A2.842,2.842,0,0,0,601.535,245.345Z" transform="translate(-600.074 -245.345)"/></g><g transform="translate(0 5.716)"><path class="i" d="M597.629,234.494s-1.174-2.19-2.48-.8c-1.076,1.145.087,4.793,2.066,3.818Z" transform="translate(-594.738 -233.232)"/></g><g transform="translate(5.095 4.666)"><path class="b" d="M611.95,234.3a2.232,2.232,0,1,1,2.882-1.289A2.235,2.235,0,0,1,611.95,234.3Zm1.477-3.867a1.906,1.906,0,1,0,1.1,2.461A1.909,1.909,0,0,0,613.426,230.433Z" transform="translate(-610.514 -229.982)"/></g><g transform="translate(2.678 5.773)"><path class="b" d="M605.665,234.035a.161.161,0,0,1-.059-.015,3.309,3.309,0,0,0-2.353-.127.163.163,0,0,1-.116-.3,3.6,3.6,0,0,1,2.6.135.163.163,0,0,1-.076.311Z" transform="translate(-603.031 -233.408)"/></g><g transform="translate(10.034 5.224)"><path class="b" d="M627.242,236.027a2.232,2.232,0,1,1,2.882-1.289A2.235,2.235,0,0,1,627.242,236.027Zm1.477-3.866a1.907,1.907,0,1,0,1.1,2.461A1.909,1.909,0,0,0,628.719,232.161Z" transform="translate(-625.807 -231.71)"/></g><g transform="translate(9.221 6.333)"><path class="b" d="M623.375,235.558a.157.157,0,0,1-.062-.057.163.163,0,0,1,.051-.225,1.006,1.006,0,0,1,1.13.087.163.163,0,0,1-.2.259.683.683,0,0,0-.759-.07A.163.163,0,0,1,623.375,235.558Z" transform="translate(-623.289 -235.141)"/></g></g><g transform="translate(3.355 0.337)"><path class="l" d="M609.59,211.738a5.355,5.355,0,0,1,2.9,3.149c.3.883.547,2.047-.694,1.9-3.385-.411-5.2-3.923-5.2-3.923s-.659,3.237-3.318,2.841-2.574-2.4-1.063-3.535A7.906,7.906,0,0,1,609.59,211.738Z" transform="translate(-601.161 -211.035)"/></g><g transform="translate(2.988 4.257)"><path class="l" d="M602.615,223.548a3.877,3.877,0,0,0-.97,3.372c.543,1.748.58,3.149.013,4.087a10.657,10.657,0,0,0-.82-3.235c-.553-1.145-1.069-2.018-.67-3.339C600.443,223.526,601.106,222.654,602.615,223.548Z" transform="translate(-600.027 -223.173)"/></g></g></g><g transform="translate(14.179 41.407)"><g transform="translate(0 11.742)"><path class="p" d="M578.674,364.385l-1.562-2.971a1.105,1.105,0,0,1,.99-1.62l24.554.265-.724,3.8Z" transform="translate(-576.984 -359.794)"/></g><g transform="translate(1.691 0)"><path class="p" d="M605.052,338.934H583.078a.843.843,0,0,1-.854-.96l1.5-13.576a1.1,1.1,0,0,1,1.066-.96h21.974a.843.843,0,0,1,.854.96l-1.5,13.576A1.1,1.1,0,0,1,605.052,338.934Z" transform="translate(-582.219 -323.438)"/></g><g transform="translate(12.907 6.135)"><path class="d" d="M616.954,344.288a1.934,1.934,0,0,0,1.794,2.1,2,2,0,0,0,2.1-1.85,1.935,1.935,0,0,0-1.794-2.1A2,2,0,0,0,616.954,344.288Z" transform="translate(-616.948 -342.434)"/></g><g transform="translate(1.545 14.209)"><path class="p" d="M604.853,369.9H582.577a.808.808,0,0,1-.8-.918l.212-1.552H605.9l-.242,1.771A.809.809,0,0,1,604.853,369.9Z" transform="translate(-581.768 -367.433)"/></g></g></g></g></svg>