<svg xmlns="http://www.w3.org/2000/svg" xmlns:xlink="http://www.w3.org/1999/xlink" width="170.348" height="163.443" viewBox="0 0 170.348 163.443"><defs><filter id="a" x="55.132" y="0" width="43.915" height="46.729" filterUnits="userSpaceOnUse"><feOffset dy="4" input="SourceAlpha"/><feGaussianBlur stdDeviation="4" result="b"/><feFlood flood-color="#2c2738" flood-opacity="0.078"/><feComposite operator="in" in2="b"/><feComposite in="SourceGraphic"/></filter><filter id="c" x="19.891" y="24.075" width="45.531" height="48.603" filterUnits="userSpaceOnUse"><feOffset dy="4" input="SourceAlpha"/><feGaussianBlur stdDeviation="4" result="d"/><feFlood flood-color="#2c2738" flood-opacity="0.078"/><feComposite operator="in" in2="d"/><feComposite in="SourceGraphic"/></filter><filter id="e" x="102.412" y="18.302" width="56.294" height="44.402" filterUnits="userSpaceOnUse"><feOffset dy="4" input="SourceAlpha"/><feGaussianBlur stdDeviation="4" result="f"/><feFlood flood-color="#2c2738" flood-opacity="0.078"/><feComposite operator="in" in2="f"/><feComposite in="SourceGraphic"/></filter></defs><g transform="translate(0 9.125)"><g transform="translate(0 0)"><path d="M488.362,332.188c-10.745,0-156.019-.314-156.019-.331-.06-.141-18.442-22.671,4.7-46.226,11.469-11.671-10.532-26.792,0-39.775,18.041-22.239,35.892-9.714,50.763-15.969a23.9,23.9,0,0,0,7.9-5.608,29.387,29.387,0,0,1,4.857-4.032q.4-.267.81-.521a32.343,32.343,0,0,1,3.241-1.759q1.123-.53,2.289-.98h0a37.411,37.411,0,0,1,3.793-1.235,42.9,42.9,0,0,1,5.657-1.11q1.262-.164,2.544-.259c16.616-1.249,35.316,5.777,44.966,16.047a24.373,24.373,0,0,1,3.813,27.475c-4.4,9.286,14.023,18.154,20.569,28.758C504.9,313.621,488.513,331.836,488.362,332.188Z" transform="translate(-325.365 -177.869)" fill="#f1f9ff"/><g transform="translate(15.695 0)"><g transform="translate(0 0)"><g transform="translate(22.095 25.044)"><g transform="translate(0 46.37)"><g transform="translate(14.83 7.099)"><path d="M156.474,256.882l.009-.005C156.479,256.862,156.476,256.867,156.474,256.882Z" transform="translate(-156.474 -256.868)" fill="#1da1f2"/></g><path d="M198,292.515c-.114-2.515-3.889-36.354-4.459-40.7a10.289,10.289,0,0,0-6.492-8.68h0l-18.972-6.547H149.3L128.956,243.7l-.01.345a3.2,3.2,0,0,1,0-.34c-.2.113-5.212,1.536-6.41,6.47-.655,2.7-8.3,40.94-8.411,42.063s.9,7.977,6.292,8.876c2.021.337,6.392.027,11.068-.493l-3.652,18.753H186.8l-2.085-13.4c4.69-1.826,9.6-3.869,10.418-4.721C196.738,299.59,198.11,295.03,198,292.515Zm-66.712-9.636h0Z" transform="translate(-114.117 -236.59)" fill="#1da1f2"/><g transform="translate(25.134 46.032)" opacity="0.3"><path d="M193.358,373.986a10.659,10.659,0,0,0-.869-3.5,4.272,4.272,0,0,0-2.622-2.333,2.71,2.71,0,0,0-3.086,1.277c-2.128,5.972-.193,9.335,3.866,12.561a2.521,2.521,0,0,0,2.225.676c.774-.234.932-.8.968-1.609A43.723,43.723,0,0,0,193.358,373.986Z" transform="translate(-185.906 -368.069)" fill="#1da1f2"/></g><g transform="translate(58.16 24.046)"><path d="M280.238,305.272Z" transform="translate(-280.238 -305.272)" fill="#1da1f2"/></g><g transform="translate(58.16 24.046)"><path d="M280.238,305.272Z" transform="translate(-280.238 -305.272)" fill="#1da1f2"/></g><g transform="translate(13.806 45.159)"><path d="M164.019,365.583a1.829,1.829,0,0,1-.385.063l-1.069.113c-.91.089-2.183.2-3.637.325l.043-.015c-.331.231-.675.47-1.02.722a18.7,18.7,0,0,0-3.346,2.966,9.7,9.7,0,0,0-.794,1.1,3.024,3.024,0,0,1-.262.426,2.331,2.331,0,0,1,.2-.461,7.841,7.841,0,0,1,.756-1.145,16.97,16.97,0,0,1,3.339-3.032c.347-.254.693-.493,1.026-.722l.02-.014.024,0c1.454-.113,2.729-.205,3.641-.263l1.073-.06A1.807,1.807,0,0,1,164.019,365.583Z" transform="translate(-153.549 -365.575)" fill="#1da1f2"/></g><g transform="translate(1.934 51.722)"><path d="M151.157,384.32a.512.512,0,0,1,.029.105l.067.313c.051.277.123.686.186,1.217a39.617,39.617,0,0,1,.244,4.521q0,.717-.012,1.5a2.21,2.21,0,0,1-.527,1.549,2.383,2.383,0,0,1-1.566.785l-1.817.316c-2.486.437-5.213.964-8.092,1.427s-5.642.8-8.16,1.016a42.566,42.566,0,0,1-6.71.259,9.545,9.545,0,0,1-1.357-.188,3.841,3.841,0,0,1-1.136-.464,8.915,8.915,0,0,1-1.524-1.22c-.384-.373-.667-.677-.857-.884l-.215-.238a.486.486,0,0,1-.068-.085.472.472,0,0,1,.082.072l.228.225c.2.2.49.494.879.857a9.122,9.122,0,0,0,1.527,1.184,3.763,3.763,0,0,0,1.109.439,9.59,9.59,0,0,0,1.341.173,43.834,43.834,0,0,0,6.685-.3c2.514-.229,5.27-.56,8.146-1.028s5.6-.985,8.092-1.413l1.82-.308a2.229,2.229,0,0,0,1.479-.726,2.066,2.066,0,0,0,.5-1.453q.022-.781.023-1.5a43.58,43.58,0,0,0-.186-4.513c-.051-.531-.112-.941-.151-1.219l-.049-.316A.471.471,0,0,1,151.157,384.32Z" transform="translate(-119.642 -384.32)" fill="#1da1f2"/></g><g transform="translate(19.174 23.356)"><path d="M171.072,303.3c.05,0-.4,4.984-1,11.12s-1.133,11.108-1.183,11.1.4-4.983,1-11.121S171.022,303.3,171.072,303.3Z" transform="translate(-168.884 -303.301)" fill="#1da1f2"/></g><g transform="translate(67.592 19.022)"><path d="M309.318,290.923a.3.3,0,0,1,.005.085c0,.067,0,.148,0,.249q-.011.35-.03.954c-.028.829-.083,2.027-.162,3.508-.156,2.962-.439,7.049-.787,11.559s-.652,8.6-.841,11.555c-.092,1.467-.167,2.66-.22,3.5-.027.4-.048.72-.064.953-.008.1-.015.181-.021.248a.3.3,0,0,1-.014.084.308.308,0,0,1,0-.085l0-.248q.01-.35.029-.954c.028-.829.084-2.027.162-3.508.156-2.962.439-7.049.788-11.561s.651-8.595.84-11.553c.092-1.468.167-2.661.22-3.5q.04-.6.064-.953c.008-.1.015-.181.021-.247A.294.294,0,0,1,309.318,290.923Z" transform="translate(-307.177 -290.923)" fill="#1da1f2"/></g><g transform="translate(71.103 50.468)"><path d="M328.228,385.6a14.016,14.016,0,0,0-1.089-1.548,8.534,8.534,0,0,0-3.715-2.529,15.181,15.181,0,0,0-2.443-.57,5.363,5.363,0,0,0-3.318.542,3.443,3.443,0,0,1-.457.227c0-.005.032-.034.1-.084s.175-.125.32-.206a5.133,5.133,0,0,1,1.295-.537,5.649,5.649,0,0,1,2.078-.109,14.285,14.285,0,0,1,2.481.564,8.291,8.291,0,0,1,3.756,2.619,7.505,7.505,0,0,1,.778,1.163A2.349,2.349,0,0,1,328.228,385.6Z" transform="translate(-317.205 -380.74)" fill="#1da1f2"/></g><g transform="translate(58.843 59.408)"><path d="M295.588,415.606a1.1,1.1,0,0,1-.2.105l-.6.27c-.523.231-1.28.565-2.223.964a22.032,22.032,0,0,1-3.4,1.195,5.111,5.111,0,0,1-2.141.062,4.147,4.147,0,0,1-2-1.123,5.676,5.676,0,0,1-1.241-1.934,13.113,13.113,0,0,1-.661-2.028,29.844,29.844,0,0,1-.63-3.544c-.124-1.016-.193-1.842-.241-2.412-.02-.27-.036-.488-.049-.657a1.072,1.072,0,0,1,0-.23,1.092,1.092,0,0,1,.041.227c.022.168.049.385.083.654.069.567.158,1.39.3,2.4a32,32,0,0,0,.665,3.519,13.228,13.228,0,0,0,.662,2,5.554,5.554,0,0,0,1.2,1.872,3.989,3.989,0,0,0,1.916,1.081,4.988,4.988,0,0,0,2.067-.052,23.211,23.211,0,0,0,3.384-1.15l2.244-.91.614-.238A1.078,1.078,0,0,1,295.588,415.606Z" transform="translate(-282.187 -406.274)" fill="#1da1f2"/></g><g transform="translate(16.726 60.766)" opacity="0.3"><path d="M178.653,410.153a3.787,3.787,0,0,1-2.519,1.029c-4.683.794-8.91,1.553-13.64,2.067l-.6,3.1a70.26,70.26,0,0,0,14.239-3.535,5.656,5.656,0,0,0,1.724-.934A2.148,2.148,0,0,0,178.653,410.153Z" transform="translate(-161.892 -410.153)" fill="#1da1f2"/></g><g transform="translate(60.616 60.428)" opacity="0.3"><path d="M287.251,409.189a17.652,17.652,0,0,0,2.163,7.317c.292.5.733,1.054,1.31.989a1.517,1.517,0,0,0,.994-.836,12.506,12.506,0,0,0,2.01-4.55l-4.471-1.781Z" transform="translate(-287.251 -409.189)" fill="#1da1f2"/></g><g transform="translate(35.57 59.904)"><path d="M231.011,407.69c.031.04-3.369,2.709-7.592,5.962s-7.674,5.858-7.7,5.818,3.368-2.709,7.594-5.962S230.98,407.65,231.011,407.69Z" transform="translate(-215.713 -407.69)" fill="#1da1f2"/></g><g transform="translate(64.694 53.725)"><path d="M303.685,390.042a3.542,3.542,0,0,1,.049.583,6.3,6.3,0,0,1-.007.686c0,.268-.035.571-.073.906a23.443,23.443,0,0,1-1.265,5.1,27.648,27.648,0,0,1-2.222,4.758,14.174,14.174,0,0,1-.888,1.323,3.536,3.536,0,0,1-.378.446,3.635,3.635,0,0,1,.32-.488c.209-.31.506-.764.834-1.347a31.3,31.3,0,0,0,2.162-4.755,25.963,25.963,0,0,0,1.309-5.05c.046-.331.087-.631.1-.9s.045-.493.038-.68A3.619,3.619,0,0,1,303.685,390.042Z" transform="translate(-298.9 -390.042)" fill="#1da1f2"/></g></g><g transform="translate(24.276 80.837)"><path d="M202.5,342.683s-5.2-8.3-9.275-6.67c0,0-2.073-1.7-3.4-.612s-.85,3.3-.85,3.3-2.515-2.039-3.637-.986-.306,2.855,0,3.739a16.2,16.2,0,0,1,.476,2.753s-1.529-.781-2.243.476,2.005,5.472,2.413,6.05,3.025,3.161,4.826,2.481a7.634,7.634,0,0,0,3.059-2.481Z" transform="translate(-183.455 -335.037)" fill="#ffbe9d"/><g transform="translate(2.699 3.978)"><path d="M193.984,346.4a3.169,3.169,0,0,1,.471.293l1.243.855,1.831,1.289a2.751,2.751,0,0,1,.5.442,1.1,1.1,0,0,1,.277.663,1.355,1.355,0,0,1-.792,1.205,2.277,2.277,0,0,1-1.444.151,4.914,4.914,0,0,1-1.255-.471c-.752-.387-1.41-.769-1.952-1.106s-.969-.628-1.259-.836a3.011,3.011,0,0,1-.437-.342,3.519,3.519,0,0,1,.476.283c.3.189.738.463,1.286.785s1.21.69,1.96,1.066a4.833,4.833,0,0,0,1.215.446,2.116,2.116,0,0,0,1.329-.139,1.183,1.183,0,0,0,.7-1.035,1.4,1.4,0,0,0-.7-.977l-1.806-1.319-1.21-.9A3.271,3.271,0,0,1,193.984,346.4Z" transform="translate(-191.163 -346.401)" fill="#eb996e"/></g><g transform="translate(5.588 0.555)"><path d="M199.415,339.792a.7.7,0,0,1,.155.1l.424.32c.367.278.9.684,1.57,1.156a10.682,10.682,0,0,0,2.51,1.381,6.228,6.228,0,0,0,1.641.365,3.541,3.541,0,0,0,1.751-.237,1.411,1.411,0,0,0,.627-.59,1.042,1.042,0,0,0,.071-.809,4.069,4.069,0,0,0-.936-1.366,19.157,19.157,0,0,0-2.149-1.918c-.648-.506-1.191-.892-1.568-1.156l-.435-.3a.71.71,0,0,1-.146-.115.727.727,0,0,1,.166.084c.106.06.259.153.454.276.39.246.946.618,1.607,1.113a18.023,18.023,0,0,1,2.193,1.9c.187.2.375.412.551.642a2.567,2.567,0,0,1,.433.788,1.224,1.224,0,0,1-.082.945,1.589,1.589,0,0,1-.706.668,3.678,3.678,0,0,1-1.846.252,6.314,6.314,0,0,1-1.684-.385,10.423,10.423,0,0,1-2.527-1.434c-.667-.487-1.185-.91-1.539-1.205l-.4-.347A.733.733,0,0,1,199.415,339.792Z" transform="translate(-199.414 -336.621)" fill="#eb996e"/></g><g transform="translate(1.393 9.152)"><g transform="translate(0 0.001)"><path d="M188.169,361.182l3.654,1.754c.415.2.895.5.878.96a.948.948,0,0,1-.266.564,2.973,2.973,0,0,1-2.428.877,8.793,8.793,0,0,1-2.572-.691" transform="translate(-187.435 -361.182)" fill="#ffbe9d"/></g><path d="M187.435,364.643c.012-.036.606.217,1.6.47a4.489,4.489,0,0,0,1.768.1,2.974,2.974,0,0,0,.978-.338,1.956,1.956,0,0,0,.772-.752.555.555,0,0,0,0-.487,1.043,1.043,0,0,0-.349-.379,7.846,7.846,0,0,0-.933-.493l-1.627-.8-1.09-.556a2.166,2.166,0,0,1-.389-.226,2.106,2.106,0,0,1,.42.162l1.115.5,1.643.767a7.505,7.505,0,0,1,.964.5,1.21,1.21,0,0,1,.409.447.738.738,0,0,1,0,.641,2.548,2.548,0,0,1-1.889,1.18,4.438,4.438,0,0,1-1.826-.14,9.639,9.639,0,0,1-1.16-.4A2.033,2.033,0,0,1,187.435,364.643Z" transform="translate(-187.435 -361.178)" fill="#eb996e"/></g><g transform="translate(0.811 13.888)"><path d="M192.785,378.784l-5.508,4.154a9.18,9.18,0,0,1-.9-8.232h1.326l-.3,1.48,2.51.524Z" transform="translate(-185.772 -374.706)" fill="#ffbe9d"/></g><g transform="translate(1.302 13.789)"><g transform="translate(0.002 0.001)"><path d="M187.178,374.423l2.023,2.635a4.23,4.23,0,0,0,.786.85,1.428,1.428,0,0,0,1.086.307" transform="translate(-187.178 -374.423)" fill="#ffbe9d"/></g><path d="M191.07,378.214a.978.978,0,0,1-.83-.075,2.263,2.263,0,0,1-.729-.561c-.232-.256-.451-.555-.69-.862-.475-.618-.9-1.184-1.194-1.6a3.753,3.753,0,0,1-.452-.695,3.755,3.755,0,0,1,.555.616c.324.4.761.948,1.236,1.567.239.307.456.611.671.862a2.318,2.318,0,0,0,.66.556A1.824,1.824,0,0,0,191.07,378.214Z" transform="translate(-187.174 -374.421)" fill="#eb996e"/></g></g><g transform="translate(27.021 87.819)"><path d="M191.437,362.377l6.742-6.449a3.421,3.421,0,0,1,2.464-.947l34.6,1.011a.725.725,0,0,1,.408,1.31l-9.716,7.137a.921.921,0,0,1-.585.178l-33.615-1.459A.453.453,0,0,1,191.437,362.377Z" transform="translate(-191.296 -354.98)" fill="rgba(244,251,255,0.95)"/><g transform="translate(0.434 0.801)"><path d="M236.734,358.348a.61.61,0,0,1-.122.006h-.356l-1.369-.022-5.033-.114-16.6-.445-9.141-.267-2.053-.062a7.5,7.5,0,0,0-.971,0,2.439,2.439,0,0,0-.874.282,3.3,3.3,0,0,0-.709.554l-.653.6-1.227,1.13-3.71,3.4-1.015.918-.267.235a.62.62,0,0,1-.1.076.608.608,0,0,1,.083-.09l.255-.249.992-.944,3.671-3.445,1.219-1.139.649-.606a3.441,3.441,0,0,1,.735-.58,2.588,2.588,0,0,1,.928-.3,7.479,7.479,0,0,1,.994,0l2.053.054,9.142.252,16.6.5,5.032.172,1.368.056.355.019A.588.588,0,0,1,236.734,358.348Z" transform="translate(-192.536 -357.267)" fill="#6b82ab"/></g></g><g transform="translate(12.906 60.548)"><g transform="translate(57.744 10.959)"><path d="M323.773,308.386c.044.023-1.679,3.353-3.849,7.434s-3.966,7.373-4.011,7.349,1.679-3.352,3.85-7.435S323.728,308.362,323.773,308.386Z" transform="translate(-315.912 -308.386)" fill="#fff"/></g><g transform="translate(49.666 10.272)"><path d="M296.105,306.425c.049.012-.642,2.987-1.544,6.643s-1.673,6.612-1.721,6.6.642-2.986,1.544-6.644S296.057,306.413,296.105,306.425Z" transform="translate(-292.837 -306.425)" fill="#fff"/></g><g transform="translate(0 15.713)"><path d="M150.98,321.964c.038-.033,2.155,2.326,4.728,5.268s4.629,5.356,4.591,5.389-2.154-2.325-4.728-5.269S150.942,322,150.98,321.964Z" transform="translate(-150.98 -321.964)" fill="#fff"/></g><g transform="translate(8.354 4.005)"><path d="M174.843,288.525c.048-.014,1.155,3.64,2.47,8.161s2.344,8.2,2.3,8.213-1.154-3.64-2.471-8.162S174.795,288.539,174.843,288.525Z" transform="translate(-174.841 -288.525)" fill="#fff"/></g><g transform="translate(42.304)"><path d="M272.084,277.085a1.268,1.268,0,0,1,.016.248c0,.181.006.417.01.711,0,.638,0,1.526,0,2.615-.015,2.226-.036,5.267-.06,8.626-.044,3.36-.084,6.4-.113,8.627-.023,1.089-.042,1.976-.055,2.615-.01.294-.018.53-.024.711a1.344,1.344,0,0,1-.021.248,1.234,1.234,0,0,1-.016-.248c0-.181-.006-.417-.01-.711,0-.639,0-1.526,0-2.615.015-2.226.037-5.268.06-8.628.044-3.36.084-6.4.113-8.627.023-1.088.042-1.976.055-2.614.01-.294.018-.53.024-.711A1.273,1.273,0,0,1,272.084,277.085Z" transform="translate(-271.81 -277.085)" fill="#fff"/></g></g><g transform="translate(23.14)"><path d="M224.371,121.927c-1.307-1.4-2.889-2.72-3.346-4.579-.42-1.709.183-3.667-.722-5.177-1.113-1.858-3.89-2.012-5.228-3.715-.648-.825-.874-1.918-1.515-2.748-1.092-1.415-3.122-1.734-4.892-1.487s-3.459.941-5.237,1.123c-2.439.25-4.987-.465-7.312.313-2.565.858-4.074,3.2-5.686,5.475l-2.113,2.644a9.642,9.642,0,0,1-1.425,1.235,17.447,17.447,0,0,0-2.718,1.862,4.33,4.33,0,0,0,.487,6.225,4.629,4.629,0,0,0-2.971,4.639,13.305,13.305,0,0,0,.941,3.113,4.623,4.623,0,0,1,.192,3.186,2.033,2.033,0,0,1-2.617,1.233,4.868,4.868,0,0,0,2.76,3.156,2.91,2.91,0,0,1-1.929.934c2.137,4.591,7.611,6.859,12.673,6.716s9.84-2.225,14.471-4.271l13.506-4c1.187-.314,1.636-1.785,1.578-3.012s-.413-2.493-.014-3.654c.548-1.592,2.347-2.488,2.923-4.07C226.833,125.268,225.678,123.326,224.371,121.927Z" transform="translate(-180.21 -104.145)" fill="#263238"/><g transform="translate(6.89 1.539)"><g transform="translate(0 1.092)"><g transform="translate(2.366 6.219)"><path d="M209.736,151.874a56.168,56.168,0,0,1-2.721-9.3,19.622,19.622,0,0,1,.483-9.592c.157-.465,1.521-3.59,2.011-3.557.35.024-.461,2.926-.276,3.224a16.64,16.64,0,0,1,2.16,9.641,43.793,43.793,0,0,1-1.656,9.586" transform="translate(-206.648 -129.422)" fill="#263238"/></g><g transform="translate(4.729 0.922)"><path d="M226.083,114.312l-.751-.018c-8.109.28-12.4,7.323-11.9,15.421l.231,27.924a9.5,9.5,0,0,0,9.079,9.41h0a9.5,9.5,0,0,0,9.912-9.219c.042-1.467.076-2.494.081-2.494s7.813-1.025,8.094-8.806c.135-3.758-.214-11.521-.613-18.541A14.5,14.5,0,0,0,226.083,114.312Z" transform="translate(-213.397 -114.294)" fill="#ffbe9d"/></g><g transform="translate(14.01 38.726)"><path d="M249.967,225.507a18.8,18.8,0,0,1-10.062-3.237s2.211,5.792,9.993,5.276Z" transform="translate(-239.905 -222.27)" fill="#eb996e"/></g><g transform="translate(25.904 20.77)"><path d="M276.1,172.013a1.112,1.112,0,0,1-1.1,1.1,1.063,1.063,0,0,1-1.122-1.029,1.112,1.112,0,0,1,1.1-1.1A1.064,1.064,0,0,1,276.1,172.013Z" transform="translate(-273.878 -170.982)" fill="#263238"/></g><g transform="translate(25.422 16.585)"><path d="M276.892,160.253c-.141.141-.968-.5-2.164-.527-1.194-.043-2.087.552-2.213.4-.062-.067.085-.325.473-.594a3.048,3.048,0,0,1,1.776-.5,2.929,2.929,0,0,1,1.719.6C276.843,159.924,276.962,160.189,276.892,160.253Z" transform="translate(-272.501 -159.032)" fill="#263238"/></g><g transform="translate(15.078 20.77)"><path d="M245.177,172.014a1.112,1.112,0,0,1-1.1,1.1,1.063,1.063,0,0,1-1.122-1.029,1.113,1.113,0,0,1,1.1-1.1A1.064,1.064,0,0,1,245.177,172.014Z" transform="translate(-242.957 -170.983)" fill="#263238"/></g><g transform="translate(13.695 16.791)"><path d="M243.4,160.839c-.141.141-.969-.5-2.165-.527-1.194-.042-2.087.552-2.213.4-.062-.066.083-.324.473-.593a3.048,3.048,0,0,1,1.776-.5,2.935,2.935,0,0,1,1.719.6C243.347,160.51,243.466,160.775,243.4,160.839Z" transform="translate(-239.006 -159.618)" fill="#263238"/></g><g transform="translate(21.834 17.325)"><path d="M262.577,171.123a7.908,7.908,0,0,1,1.951-.3c.306-.024.6-.078.653-.285a1.556,1.556,0,0,0-.182-.91l-.848-2.347a39.979,39.979,0,0,1-1.884-6.131,40.03,40.03,0,0,1,2.373,5.965q.424,1.236.809,2.36a1.767,1.767,0,0,1,.13,1.2.768.768,0,0,1-.513.435,2.067,2.067,0,0,1-.521.06A7.775,7.775,0,0,1,262.577,171.123Z" transform="translate(-262.253 -161.144)" fill="#263238"/></g><g transform="translate(18.408 28.047)"><path d="M252.679,191.769c.195-.007.166,1.292,1.255,2.239s2.475.838,2.481,1.02c.016.082-.314.245-.9.247a3.234,3.234,0,0,1-2.072-.778,2.815,2.815,0,0,1-.969-1.876C252.438,192.077,252.59,191.759,252.679,191.769Z" transform="translate(-252.469 -191.768)" fill="#263238"/></g><g transform="translate(12.665 12.204)"><path d="M241.536,147.469c-.126.323-1.316.14-2.723.276-1.41.107-2.552.491-2.731.2-.079-.142.125-.443.59-.747a4.759,4.759,0,0,1,4.155-.359C241.337,147.055,241.591,147.316,241.536,147.469Z" transform="translate(-236.065 -146.517)" fill="#263238"/></g><g transform="translate(25.346 12.53)"><path d="M276.352,148.737c-.217.266-1.034-.035-2.024-.072-.989-.072-1.834.139-2.021-.15-.081-.14.057-.409.43-.658a2.933,2.933,0,0,1,3.259.179C276.34,148.323,276.448,148.606,276.352,148.737Z" transform="translate(-272.285 -147.447)" fill="#263238"/></g><g transform="translate(0 21.833)"><path d="M205.157,174.308c-.131-.061-5.31-1.709-5.267,3.616s5.38,4.183,5.388,4.03S205.157,174.308,205.157,174.308Z" transform="translate(-199.89 -174.021)" fill="#ffbe9d"/></g><g transform="translate(1.352 23.558)"><path d="M206.146,183.152c-.023-.017-.092.065-.248.139a.928.928,0,0,1-.694.02,2.3,2.3,0,0,1-1.079-2.051,3.066,3.066,0,0,1,.249-1.33,1.072,1.072,0,0,1,.692-.718.473.473,0,0,1,.55.25c.072.148.04.255.068.264s.113-.09.069-.31a.592.592,0,0,0-.213-.332.7.7,0,0,0-.514-.131,1.3,1.3,0,0,0-.962.833,3.15,3.15,0,0,0-.31,1.487,2.408,2.408,0,0,0,1.372,2.288.993.993,0,0,0,.847-.148C206.137,183.281,206.164,183.162,206.146,183.152Z" transform="translate(-203.752 -178.947)" fill="#eb996e"/></g><g transform="translate(2.6)"><path d="M232.676,117.513c.854-.49-1.78-3.237-3.913-4.161-3.225-1.4-8.127-2.209-11.064-1.322-3.535,1.067-6.457,2.885-8.186,6.149a20.945,20.945,0,0,0-2.169,10.732,6.363,6.363,0,0,0,.805,3.24c.764,1.164,2.2,1.881,2.168,3.506a2.229,2.229,0,0,0,.581,1.616c.992,1.02,2.167.026,2.7-.96,1.135-2.105,1.223-4.6,1.286-6.988a15.57,15.57,0,0,0-.423-5.058c-.275-.883-.708-1.715-.934-2.611a3.2,3.2,0,0,1,.332-2.664,3.318,3.318,0,0,1,.425-.445,5.553,5.553,0,0,1,5.491-1.142c3.016,1.01,8.163,2.507,9.483,1.467a8.2,8.2,0,0,0,2.343-2.459Z" transform="translate(-207.317 -111.66)" fill="#263238"/></g></g><g transform="translate(5.835)"><path d="M223.97,109.276a11.7,11.7,0,0,1,9,.341,6.087,6.087,0,0,1,3.27,3.481,3.489,3.489,0,0,1-1.676,4.163l-.1.068c-2.259.8-3.74.524-6.018-.222-1.917-.627-3.632-1.774-5.551-2.392a10.821,10.821,0,0,0-6.336-.077A17.66,17.66,0,0,1,223.97,109.276Z" transform="translate(-216.557 -108.541)" fill="#263238"/></g></g><g transform="translate(6.578 4.48)"><path d="M200.139,137.61a2.255,2.255,0,0,1-.265-.309,4.272,4.272,0,0,1-.564-1.023,4.531,4.531,0,0,1-.308-1.823,4.466,4.466,0,0,1,.773-2.316,4.593,4.593,0,0,1,.98-1.049,5.047,5.047,0,0,1,1.367-.74,11.712,11.712,0,0,0,3.094-1.3,2.588,2.588,0,0,0,.983-1.442,5.991,5.991,0,0,0,.1-1.877,10.581,10.581,0,0,1,.291-4.026,6.16,6.16,0,0,1,2.479-3.158,9.253,9.253,0,0,1,3.475-1.444,8.8,8.8,0,0,1,3.406,0,7.385,7.385,0,0,1,2.732,1.158,7.212,7.212,0,0,1,2.659,3.317,5.966,5.966,0,0,1,.317,1.124l.042.3a.429.429,0,0,1,.008.1,8.228,8.228,0,0,0-.433-1.5,7.352,7.352,0,0,0-5.355-4.352,8.687,8.687,0,0,0-3.344.012,9.123,9.123,0,0,0-3.406,1.426,6,6,0,0,0-2.407,3.067,10.481,10.481,0,0,0-.286,3.96,6.133,6.133,0,0,1-.114,1.932,2.76,2.76,0,0,1-1.05,1.531,11.7,11.7,0,0,1-3.143,1.308,4.557,4.557,0,0,0-2.294,1.72,4.384,4.384,0,0,0-.778,2.248,4.538,4.538,0,0,0,.272,1.793A5.245,5.245,0,0,0,200.139,137.61Z" transform="translate(-199 -116.94)" fill="#455a64"/></g><g transform="translate(4.295 2.391)"><path d="M195.325,134.948a2.933,2.933,0,0,1-.409-.237,5.416,5.416,0,0,1-1.026-.888,5.676,5.676,0,0,1-1.1-1.842,5.411,5.411,0,0,1-.219-2.825,5.54,5.54,0,0,1,1.616-3.018,29.929,29.929,0,0,1,3.188-2.332,6.564,6.564,0,0,0,1.494-1.473,7.227,7.227,0,0,0,.95-1.974,41.414,41.414,0,0,1,1.367-4.481,8.466,8.466,0,0,1,3.084-3.508A8.662,8.662,0,0,1,208.4,111a9.452,9.452,0,0,1,3.908.576,9.657,9.657,0,0,1,2.963,1.757,10.428,10.428,0,0,1,2.834,4.064,7.992,7.992,0,0,1,.5,1.757.6.6,0,0,1-.036-.115l-.09-.34a11.805,11.805,0,0,0-.438-1.276,10.54,10.54,0,0,0-2.852-3.993,9.579,9.579,0,0,0-2.93-1.712,9.33,9.33,0,0,0-3.845-.55,8.516,8.516,0,0,0-4.048,1.358,8.305,8.305,0,0,0-3.016,3.434,42.252,42.252,0,0,0-1.363,4.461,7.367,7.367,0,0,1-.977,2.019,6.708,6.708,0,0,1-1.536,1.506,30.551,30.551,0,0,0-3.183,2.306,5.42,5.42,0,0,0-1.595,2.933,5.335,5.335,0,0,0,.188,2.767,5.7,5.7,0,0,0,1.057,1.829,5.776,5.776,0,0,0,.993.9C195.187,134.861,195.33,134.939,195.325,134.948Z" transform="translate(-192.477 -110.975)" fill="#455a64"/></g></g><g transform="translate(38.57 89.486)"><path d="M247.469,365.945s-14.462-3.366-16.67-3.53c-2.073-.154-2.614,1.144-2.614,1.144s-3.1-.389-3.785,1.421a1.127,1.127,0,0,0,.725,1.592c1.272.538,8.168,2.054,9.586,3.375s13.3,8.07,13.3,8.07l4.793,1.956s2.152-5.624,2.25-7.238a4.285,4.285,0,0,0-.489-2.494s2.983-3.032,3.326-4.255a58.271,58.271,0,0,1,2.494-5.429,2.575,2.575,0,0,0-4.017.364,29.488,29.488,0,0,1-3.661,3.94A7.124,7.124,0,0,1,247.469,365.945Z" transform="translate(-224.283 -359.739)" fill="#ffbe9d"/><g transform="translate(3.9 3.819)"><path d="M249.895,377.253a.574.574,0,0,1-.154-.06l-.424-.2-1.557-.747c-1.321-.617-3.165-1.43-5.253-2.195-1.044-.384-2.048-.721-2.968-1.009s-1.765-.5-2.443-.8a3.241,3.241,0,0,1-1.4-1.019,1.8,1.8,0,0,1-.225-.418.563.563,0,0,1-.045-.159,4.366,4.366,0,0,0,.327.535,3.318,3.318,0,0,0,1.4.943c.668.275,1.52.465,2.443.753s1.934.614,2.981,1a53.637,53.637,0,0,1,5.246,2.25c.654.326,1.176.6,1.534.8l.409.234A.56.56,0,0,1,249.895,377.253Z" transform="translate(-235.422 -370.647)" fill="#eb996e"/></g><g transform="translate(24.842 5.581)"><path d="M298.165,375.682a4.189,4.189,0,0,1-2.927,1.55c-.011-.055.73-.2,1.538-.634S298.126,375.642,298.165,375.682Z" transform="translate(-295.238 -375.68)" fill="#eb996e"/></g></g></g><g transform="translate(0 154.136)"><path d="M190.346,472.955c0,.05-31.194.091-69.665.091s-69.672-.041-69.672-.091,31.188-.091,69.672-.091S190.346,472.905,190.346,472.955Z" transform="translate(-51.009 -472.864)" fill="#263238"/></g><g transform="translate(17.312)"><g transform="translate(35.25)" opacity="0.266"><g transform="translate(0.091 0.078)"><path d="M218.892,32.834H201.4V50.328h1.673v2.606l2.606-2.606h13.215Z" transform="translate(-201.398 -32.834)" fill="#fff" stroke="#78849e" stroke-width="1"/></g><g transform="matrix(1, 0, 0, 1, -68.26, -9.13)" filter="url(#a)"><path d="M218.723,32.69s.006.1.009.311,0,.525.009.925c0,.822.012,2.017.02,3.535.009,3.07.023,7.45.04,12.723v.077h-.078l-13.215.013.063-.026-2.605,2.607-.155.155V50.184l.091.091h-1.764v-.091c0-6.424.01-12.4.014-17.494v-.078h.077l12.719.04,3.538.02.926.009c.209,0,.312.009.312.009s-.114.006-.328.009l-.941.009-3.555.02-12.67.04.078-.077c0,5.09.008,11.07.013,17.494l-.091-.091h1.764v2.7l-.155-.064,2.607-2.605.026-.027h.037l13.215.013-.077.077c.016-5.253.03-9.616.04-12.674.008-1.526.015-2.726.02-3.553,0-.406.007-.719.009-.939S218.723,32.69,218.723,32.69Z" transform="translate(-132.88 -23.49)" fill="#263238" stroke="#dbe2ea" stroke-width="1"/></g></g><g transform="translate(0 24.068)"><g opacity="0.27"><g transform="translate(0.099 0.085)"><path d="M119.847,101.6H100.74v19.107h1.827v2.846l2.846-2.846h14.433Z" transform="translate(-100.74 -101.599)" fill="#fff" stroke="#78849e" stroke-width="1"/></g><g transform="matrix(1, 0, 0, 1, -33.01, -33.19)" filter="url(#c)"><path d="M119.662,101.442s.006.113.009.34.006.574.01,1.01c0,.9.012,2.2.022,3.861.01,3.352.026,8.136.044,13.9v.085h-.085l-14.433.014.069-.029-2.845,2.847-.169.169v-.24c0-.844,0-1.748,0-2.659v-.187l.1.1h-1.927v-.1c.005-7.016.011-13.548.015-19.106v-.085h.085l13.891.043,3.864.022,1.011.009c.228,0,.34.009.34.009s-.125.006-.359.009l-1.027.01-3.883.022-13.838.043.085-.084c0,5.559.009,12.091.015,19.106l-.1-.1h1.927v.287c0,.911,0,1.815,0,2.659l-.169-.07,2.847-2.845.029-.029h.041l14.433.014-.085.084c.018-5.738.033-10.5.043-13.842.009-1.667.017-2.977.022-3.88q.006-.665.01-1.026C119.656,101.567,119.662,101.442,119.662,101.442Z" transform="translate(-67.45 -68.16)" fill="#263238" stroke="#dbe2ea" stroke-width="1"/></g></g><g transform="translate(4.721 4.064)"><path d="M119.893,118.539a2.89,2.89,0,0,0,1.721-2.673,2.715,2.715,0,1,0-5.419-.025,2.884,2.884,0,0,0,1.727,2.7c-4.17.628-3.981,5.16-3.981,5.16l9.861.046S124.026,119.164,119.893,118.539Z" transform="translate(-113.939 -112.964)" fill="#ea8804"/></g></g><g transform="translate(42.07 85.267)"><g transform="translate(0.092 0.075)"><path d="M348.278,99.79h-18.2a1.656,1.656,0,0,0-1.656,1.656v16.789a1.656,1.656,0,0,0,1.656,1.656h14.944l2.995,2.994V119.89h.266a1.656,1.656,0,0,0,1.656-1.656V101.446A1.656,1.656,0,0,0,348.278,99.79Z" transform="translate(-328.417 -99.79)" fill="#fff"/></g><path d="M348.108,99.65a1.3,1.3,0,0,1,.409.04,1.661,1.661,0,0,1,.977.665,1.68,1.68,0,0,1,.3.828c.014.326.007.673.012,1.053,0,.759.007,1.629.01,2.6.005,1.951.012,4.317.019,7.026,0,1.356,0,2.8.008,4.316q0,.57,0,1.154,0,.292,0,.587a2.18,2.18,0,0,1-.057.609,1.74,1.74,0,0,1-.717,1.009,1.69,1.69,0,0,1-.59.25,2.906,2.906,0,0,1-.635.041l.08-.08c0,.937,0,1.954,0,2.994v.2l-.143-.143-3-2.992.061.025-12.825,0-2.181,0a1.739,1.739,0,0,1-1.635-1.334,2.124,2.124,0,0,1-.05-.55v-1.585q0-1.051,0-2.084c0-2.755,0-5.412.005-7.943q0-1.9,0-3.7v-1.334a1.805,1.805,0,0,1,.061-.453,1.73,1.73,0,0,1,1.209-1.218,3.075,3.075,0,0,1,.851-.063h.822l1.6,0,3,.006,9.067.029,2.465.017.641.009c.145,0,.218.009.218.009s-.074.006-.218.009l-.641.009-2.465.017-9.067.029-3,.006-1.6,0h-.822a2.95,2.95,0,0,0-.811.06,1.578,1.578,0,0,0-1.1,1.112,3.274,3.274,0,0,0-.054.854q0,.443,0,.893,0,1.8,0,3.7c0,2.531,0,5.188.005,7.943q0,1.033,0,2.084v1.055a5.424,5.424,0,0,0,.046,1.038,1.557,1.557,0,0,0,1.465,1.194l2.174,0,12.825,0h.036l.026.026,2.992,3-.142.059c0-1.04,0-2.058,0-2.994v-.08h.08a2.788,2.788,0,0,0,.6-.036,1.537,1.537,0,0,0,.536-.225,1.585,1.585,0,0,0,.655-.917,2.019,2.019,0,0,0,.054-.57v-.587q0-.584,0-1.154c0-1.519.005-2.961.008-4.316.007-2.709.014-5.074.019-7.026,0-.974.007-1.844.01-2.6,0-.378.01-.732,0-1.048a1.629,1.629,0,0,0-.275-.8,1.654,1.654,0,0,0-.942-.669A2.936,2.936,0,0,0,348.108,99.65Z" transform="translate(-328.155 -99.575)" fill="#263238"/><g transform="translate(3.664 4.103)"><rect width="14.651" height="12.331" rx="6.166" fill="#ea8804"/><g transform="translate(5.505 3.377)"><path d="M355.2,126.441a.571.571,0,0,1-.857-.495v-4.432a.571.571,0,0,1,.857-.495l1.919,1.108,1.919,1.108a.571.571,0,0,1,0,.989l-1.919,1.108Z" transform="translate(-354.345 -120.942)" fill="#fff"/></g></g></g></g></g><g transform="translate(57.051 3.234)"><path d="M9.448,10.255A4.436,4.436,0,0,1,7.5,9.471,10.883,10.883,0,0,1,5.67,7.863,26.979,26.979,0,0,1,3.716,5.639,6.823,6.823,0,0,1,2.6,3.565,3.271,3.271,0,0,1,2.48,2.051,2.673,2.673,0,0,1,3.343.541,3.682,3.682,0,0,1,3.93.112a.756.756,0,0,1,.831.013A2.982,2.982,0,0,1,6.03,1.648a.551.551,0,0,1-.061.557c-.147.2-.3.392-.448.59-.131.176-.266.349-.382.534a.491.491,0,0,0,.005.576c.293.411.577.835.9,1.227A15.6,15.6,0,0,0,7.948,7.108c.154.133.32.25.484.37a.464.464,0,0,0,.5.045,5.607,5.607,0,0,0,.514-.288c.23-.147.456-.3.683-.443a.6.6,0,0,1,.627-.012,3.054,3.054,0,0,1,1.357,1.337.822.822,0,0,1-.074.933,2.822,2.822,0,0,1-2.262,1.228,3.212,3.212,0,0,1-.328-.022Z" transform="translate(-2.441 0.006)" fill="#ea8804"/></g></g></g><g transform="translate(115.561 18.309)"><g transform="translate(0)" opacity="0.268"><g transform="translate(0.056 0.071)"><path d="M535.951,269.417h29.876v15.1H541.2l-2.743,2.743v-2.743h-2.507Z" transform="translate(-535.951 -269.417)" fill="#fff" stroke="#dbe2ea" stroke-width="1"/></g><g transform="matrix(1, 0, 0, 1, -115.56, -27.43)" filter="url(#e)"><path d="M535.816,269.245s0,.094.006.271,0,.442.006.784c0,.69.008,1.7.014,3,.007,2.605.017,6.372.03,11.038l-.056-.056,2.507,0h.059v.059c0,.853,0,1.785,0,2.743l-.107-.044,2.74-2.746.019-.02h.028l22.685-.009h1.942l-.076.076c0-5.325,0-10.415,0-15.1l.071.071-21.481-.034-6.174-.019-1.647-.009-.427,0c-.1,0-.147,0-.147,0s.045,0,.139,0l.418,0,1.633-.009,6.158-.019,21.528-.035h.071v.071c0,4.681,0,9.771,0,15.1v.076h-2.018l-22.685-.009.047-.02-2.746,2.74-.107.107v-.151c0-.958,0-1.89,0-2.743l.059.059-2.507,0h-.056v-.056c.013-4.68.023-8.458.03-11.072.006-1.3.011-2.3.014-2.992q0-.506.006-.774C535.812,269.331,535.816,269.245,535.816,269.245Z" transform="translate(-420.2 -241.74)" fill="#263238" stroke="#dbe2ea" stroke-width="1"/></g></g><g transform="translate(4.953 4.599)"><g transform="translate(0)"><path d="M572.625,284.96c0,.042-4.466.076-9.974.076s-9.974-.034-9.974-.076,4.465-.076,9.974-.076S572.625,284.918,572.625,284.96Z" transform="translate(-552.677 -284.884)" fill="#ea8804" stroke="#ea8804" stroke-width="0.2"/></g></g><g transform="translate(4.953 6.757)"><g transform="translate(0 0)"><path d="M572.625,292.329c0,.042-4.466.076-9.974.076s-9.974-.034-9.974-.076,4.465-.076,9.974-.076S572.625,292.287,572.625,292.329Z" transform="translate(-552.677 -292.253)" fill="#ea8804" stroke="#ea8804" stroke-width="0.2"/></g></g><g transform="translate(4.953 8.914)"><g transform="translate(0 0)"><path d="M572.625,299.7c0,.042-4.466.076-9.974.076s-9.974-.034-9.974-.076,4.465-.076,9.974-.076S572.625,299.656,572.625,299.7Z" transform="translate(-552.677 -299.622)" fill="#ea8804" stroke="#ea8804" stroke-width="0.2"/></g></g></g></g></svg>