<svg xmlns="http://www.w3.org/2000/svg" width="11.154" height="15.883" viewBox="0 0 11.154 15.883"><g transform="translate(-22.506 -9.501)"><path d="M28.083,10a5.083,5.083,0,0,1,5.077,5.077c0,3.616-4.731,9.489-4.932,9.737a.186.186,0,0,1-.144.069h0a.186.186,0,0,1-.145-.072c-.2-.26-4.93-6.408-4.93-9.734A5.083,5.083,0,0,1,28.083,10Zm0,14.393c.813-1.041,4.7-6.18,4.7-9.316a4.7,4.7,0,1,0-9.409,0C23.378,17.962,27.281,23.319,28.086,24.394Z" transform="translate(0 0)" fill="#6b82ab" stroke="#6b82ab" stroke-width="1"/><path d="M43.412,28a1.573,1.573,0,1,1-1.573,1.573A1.575,1.575,0,0,1,43.412,28Zm0,2.774a1.2,1.2,0,1,0-1.2-1.2A1.2,1.2,0,0,0,43.412,30.778Z" transform="translate(-15.329 -14.654)" fill="#6b82ab" stroke="#6b82ab" stroke-width="1"/></g></svg>