<svg xmlns="http://www.w3.org/2000/svg" width="17.713" height="13.147" viewBox="0 0 17.713 13.147"><g transform="translate(0.2 0.2)"><path d="M15.684,23.511H29.43v-.493h-.918a5,5,0,0,1-.034-3.18h.952v-.493H15.687a1.935,1.935,0,0,0-1.726,2.082A1.936,1.936,0,0,0,15.684,23.511Zm.013-3.673H28.171a5.421,5.421,0,0,0,.03,3.18H15.7a2.533,2.533,0,0,1-.476-1.59A2.538,2.538,0,0,1,15.7,19.838Z" transform="translate(-12.141 -19.345)" fill="#6b82ab" stroke="#6b82ab" stroke-width="0.4"/><path d="M29.547,64.571a1.935,1.935,0,0,0-1.726-2.082H14.078v.493h.952A5,5,0,0,1,15,66.162h-.918v.493H27.824A1.936,1.936,0,0,0,29.547,64.571Zm-1.735,1.591h-12.5a5.422,5.422,0,0,0,.03-3.18H27.812a2.892,2.892,0,0,1,0,3.18Z" transform="translate(-12.234 -53.907)" fill="#6b82ab" stroke="#6b82ab" stroke-width="0.4"/><path d="M19.427,44.9h1.042v-.493h-.918a5,5,0,0,1-.034-3.18h.952v-.493H6.726a2.12,2.12,0,0,0,0,4.165h12.7ZM6.735,41.228H19.21a5.421,5.421,0,0,0,.03,3.18H6.735a2.892,2.892,0,0,1,0-3.18Z" transform="translate(-5 -36.481)" fill="#6b82ab" stroke="#6b82ab" stroke-width="0.4"/></g></svg>