<svg xmlns="http://www.w3.org/2000/svg" width="45" height="45" viewBox="0 0 45 45"><g transform="translate(-1126 -521)"><rect width="45" height="45" transform="translate(1126 521)" fill="none"/><g transform="translate(1133.208 521)"><path d="M2167.1,1139.2a7.19,7.19,0,0,1,2.271,1.5c.625.8,1.284,3.892,1.644,4.425a3.637,3.637,0,0,1,.656,2.417c-.108,1.042.2.942.017,1.848a2.428,2.428,0,0,1-1.849,2.2c-1.216.2-2.446.719-2.953-.075a13.23,13.23,0,0,1-1.249-4.289C2165.629,1146.331,2167.1,1139.2,2167.1,1139.2Z" transform="translate(-2144.608 -1125.055)" fill="#00baff"/><path d="M2009.706,1139.39a7.183,7.183,0,0,0-2.292,1.48c-.639.8-1.189,2.825-1.554,3.354a13.612,13.612,0,0,0-.885,3.174,5.614,5.614,0,0,0,.165,2.628,1.77,1.77,0,0,0,1.661,1.724c1.215.212,2.437.747,2.956-.041a13.268,13.268,0,0,0,1.3-4.275C2011.082,1146.541,2009.706,1139.39,2009.706,1139.39Z" transform="translate(-2001.223 -1125.227)" fill="#00baff"/><path d="M2111.06,1336.458,2109,1337.6l-1.33-.811-.2-1.256,3.1-3.208Z" transform="translate(-2092.729 -1298.822)" fill="#a96660"/><path d="M2072.951,1364.1a32.312,32.312,0,0,1,.4-4.822,1.527,1.527,0,0,1,.757-.392,6.455,6.455,0,0,1,1.234-.245,7.778,7.778,0,0,1,1.532.181c.358.014.287.929.432,1.427s1.1.815.98,1.076-.877.724-.877.724-.818,1.279-1.39,2.306c-.432.781-.836,1.489-.921,1.575-.2.2-1.127.179-1.415.127S2072.884,1365.72,2072.951,1364.1Z" transform="translate(-2061.937 -1322.488)" fill="#00baff"/><path d="M2072.95,1366.373a32.3,32.3,0,0,1,.4-4.821,1.525,1.525,0,0,1,.757-.392c.03,1.022-.108,5.573-.108,5.573l2.017-.1c-.432.78-.835,1.489-.922,1.575-.2.2-1.126.178-1.414.127S2072.882,1367.993,2072.95,1366.373Z" transform="translate(-2061.936 -1324.761)" fill="#00baff"/><path d="M2083.75,1343.127l2.055,1.148,1.331-.811.2-1.256-3.1-3.209Z" transform="translate(-2071.574 -1304.823)" fill="#a96660"/><path d="M2101.97,1375.062a31.858,31.858,0,0,0,1.4-4.659c-.03-.164-.266-.39-.569-.609a6.18,6.18,0,0,0-1.068-.619,7.517,7.517,0,0,0-1.507-.314c-.341-.1-.612.781-.931,1.2s-1.163.9-1.144,1.187.521.652.521.652.161,1.281.319,2.432c.119.871.237,1.664.287,1.772.108.25.993.523,1.284.568S2101.431,1376.6,2101.97,1375.062Z" transform="translate(-2084.415 -1331.684)" fill="#00baff"/><path d="M2108.947,1383.508a31.907,31.907,0,0,0,1.4-4.659c-.03-.163-.265-.39-.568-.609-.4.951-1.947,5.272-1.947,5.272l-1.858-.73a17.6,17.6,0,0,0,.286,1.773c.108.25.993.523,1.283.567S2108.408,1385.05,2108.947,1383.508Z" transform="translate(-2091.391 -1340.129)" fill="#00baff"/><path d="M1978.542,1265.89s-3.507-1.024-5.271-.342-2.551,3.337-1.909,4.474,12.177,6.951,12.177,6.951,3.62-2.417,3.62-2.789a7.729,7.729,0,0,0-1.49-2.282C1984.907,1270.924,1978.542,1265.89,1978.542,1265.89Z" transform="translate(-1971.141 -1238.526)" fill="#464a8a"/><path d="M2111.883,1263.427s3.67-.87,5.453-.229c2.189.788,1.775,4.411.791,5.314-2.446,2.243-11.436,5.565-11.436,5.565s-4.141-2.554-4.141-2.926.932-.565,2.319-1.239C2106.022,1269.349,2111.883,1263.427,2111.883,1263.427Z" transform="translate(-2088.341 -1236.41)" fill="#464a8a"/><path d="M2043.259,1262s-.121,5.442.841,6.3,5.515,1.486,7.392,1.412,5.723-.669,6.286-1.153.48-5.915.48-5.915Z" transform="translate(-2035.457 -1235.544)" fill="#464a8a"/><path d="M2076.979,1000.29a2.7,2.7,0,0,0-1.158-1.391,8.174,8.174,0,0,0-4.141-.765,6.171,6.171,0,0,0-2.983.747,3.43,3.43,0,0,0-1.557,2.25,7.78,7.78,0,0,0,.014,2.117,6.013,6.013,0,0,0,.165.97,6.182,6.182,0,0,1,.286.941c.014.185.217.224.419.239.67.046,1.348.007,2.021.062,1.272.1,2.487.413,3.745.591a3.925,3.925,0,0,0,2.7-.345,1.517,1.517,0,0,0,.5-.9,11.927,11.927,0,0,0,.334-1.655,8.5,8.5,0,0,0-.069-1.569A4.127,4.127,0,0,0,2076.979,1000.29Z" transform="translate(-2056.696 -998.124)" fill="#13375b"/><path d="M2148.588,1063.149a.8.8,0,0,1,.955.185c.589.589.027,1.857-.527,2.131a1.492,1.492,0,0,1-1.147.015Z" transform="translate(-2128.761 -1056.553)" fill="#a96660"/><path d="M2156.7,1068.655a.112.112,0,0,1-.1-.086.1.1,0,0,1,.057-.115.784.784,0,0,0,.4-.536.968.968,0,0,0-.075-.841.1.1,0,0,1,.034-.141.122.122,0,0,1,.154.017,1.166,1.166,0,0,1,.108,1.022,1.01,1.01,0,0,1-.531.677A.134.134,0,0,1,2156.7,1068.655Z" transform="translate(-2136.547 -1060.019)" fill="#85524e"/><path d="M2065.554,1063.149a.8.8,0,0,0-.955.185c-.589.589-.028,1.857.527,2.131a1.488,1.488,0,0,0,1.146.015Z" transform="translate(-2054.271 -1056.553)" fill="#a96660"/><path d="M2067.181,1068.61a.115.115,0,0,1-.044-.008,1.007,1.007,0,0,1-.531-.677,1.176,1.176,0,0,1,.108-1.022.121.121,0,0,1,.154-.018.1.1,0,0,1,.033.141.972.972,0,0,0-.075.841.8.8,0,0,0,.4.538.1.1,0,0,1,.059.14A.108.108,0,0,1,2067.181,1068.61Z" transform="translate(-2056.227 -1059.974)" fill="#85524e"/><path d="M2082.231,1019.014a4.822,4.822,0,0,1-1.854,3.669,4.025,4.025,0,0,1-4.949.113,5.252,5.252,0,0,1-1.89-2.851c-.381-1.113-.381-5.268-.066-5.394a16.356,16.356,0,0,1,2.234-1.761c.447-.144,3.048.345,3.948.259s1.416.377,2.248,1.18S2082.317,1018.021,2082.231,1019.014Z" transform="translate(-2062.204 -1011.295)" fill="#a96660"/><path d="M2072.441,1100.121s.071,1.744.007,2.083-2.378,1.333-2.378,1.333l4.819,3.536,5.143-3.477a15.384,15.384,0,0,1-2.473-1.375,18.054,18.054,0,0,1-.144-2.221Z" transform="translate(-2059.373 -1089.786)" fill="#a96660"/><path d="M2094.826,1112.923a5.914,5.914,0,0,1-2.466-1.009.105.105,0,0,1-.055-.1.107.107,0,0,1,.072-.091.122.122,0,0,1,.119.019,5.845,5.845,0,0,0,2.329.967,6,6,0,0,0,2.223-.856.122.122,0,0,1,.154.034.1.1,0,0,1-.027.145A6.11,6.11,0,0,1,2094.826,1112.923Z" transform="translate(-2079.204 -1100.326)" fill="#85524e"/><path d="M2079.151,1013.291a3.141,3.141,0,0,0-.67-1.81,3.183,3.183,0,0,0-2.062-.725c-.441-.061-.864-.2-1.3-.276a6.972,6.972,0,0,0-1.363-.1q-.716.016-1.427.1a2.745,2.745,0,0,0-1.116.273,3.77,3.77,0,0,0-1.588,1.761,9.957,9.957,0,0,0-.147,2.644.1.1,0,0,0-.011-.031c-.038-.088-.192-.05-.156.039.2.476.8.871.845.123a1.766,1.766,0,0,1,.152-.8c.1-.165.239-.258.29-.444.065-.247-.055-.672.072-.885.161-.268.766-.474,1.048-.6a1.53,1.53,0,0,1,1.17.024c.4.1.8.224,1.2.3a7,7,0,0,0,.928-.031,3.2,3.2,0,0,0,.864-.161,1.747,1.747,0,0,1,1.124-.01,3.555,3.555,0,0,0,.324.16c.3.141.173.427.375.653s.335.316.384.638a5.335,5.335,0,0,0,.091.527c.044.175.318,1.383.758.942.184-.183.174-.584.2-.821A6.333,6.333,0,0,0,2079.151,1013.291Z" transform="translate(-2058.695 -1009.15)" fill="#13375b"/><path d="M2082.271,1121.714a6.4,6.4,0,0,0,.938-.618c.011-.086,2.379.468,2.551.468s2.416-.607,2.531-.564,1.319.961,1.319.961-2.794,3.087-3.168,3.026-4.3-2.557-4.3-2.557Z" transform="translate(-2070.138 -1108.678)" fill="#fff"/><path d="M2045.791,1127.689c.2.21,1.73,1.97,3.254,2s3.493-1.861,3.716-1.914a17.541,17.541,0,0,1,3.277,1.052c.561.291.816,7.965.865,8.536s-7.008,3.829-7.467,3.78-8.326-2.429-8.326-2.429.217-9.236.508-9.608S2045.594,1127.479,2045.791,1127.689Z" transform="translate(-2033.545 -1114.677)" fill="#00baff"/><path d="M2090.118,1130.1a12.3,12.3,0,0,1-2.334-1.2.1.1,0,0,1-.04-.147.125.125,0,0,1,.161-.036c.908.511,1.937,1.068,2.182,1.163a8.224,8.224,0,0,0,.549-1.218.112.112,0,0,1,.059-.061.125.125,0,0,1,.088,0,.105.105,0,0,1,.07.136c-.519,1.353-.648,1.366-.726,1.372Z" transform="translate(-2075.122 -1115.507)" fill="#f8ecec"/><path d="M2116.5,1129.638h-.016c-.063-.009-.229-.035-.679-1.3a.107.107,0,0,1,.074-.135.121.121,0,0,1,.088.005.112.112,0,0,1,.056.062,6.042,6.042,0,0,0,.506,1.147c.241-.078,1.376-.683,2.373-1.243a.121.121,0,0,1,.158.036.1.1,0,0,1-.039.147A11.859,11.859,0,0,1,2116.5,1129.638ZM2116.547,1129.438ZM2116.5,1129.426Z" transform="translate(-2100.158 -1115.119)" fill="#f8ecec"/><path d="M2115.14,1137.8a.111.111,0,0,1-.115-.106v-.348a.106.106,0,0,1,.054-.1.122.122,0,0,1,.122,0,.106.106,0,0,1,.055.1v.348A.113.113,0,0,1,2115.14,1137.8Z" transform="translate(-2099.467 -1123.279)" fill="#f8ecec"/><path d="M2009,1158.563a6.992,6.992,0,0,1,.9-.633,36.461,36.461,0,0,1,5.082,1.451c2.9,1.1,5.082,2.026,5.082,2.026s3.51-1.58,5.493-2.213a36.664,36.664,0,0,1,4.614-1.152,3.814,3.814,0,0,1,1.143.464s-4.433,3.18-4.612,3.254-9.459,1.284-9.553,1.284S2009,1158.563,2009,1158.563Z" transform="translate(-2004.907 -1141.908)" fill="#f8ecec"/><path d="M2005.83,1160.79l10.273,3.767.185,10.859-8.753-3.395Z" transform="translate(-2002.079 -1144.481)" fill="#ffcd56"/><path d="M2134.3,1160.79l-10.273,3.767-.024,10.859,8.593-3.395Z" transform="translate(-2107.472 -1144.481)" fill="#ffcd56"/><path d="M2087.1,1198.36h2.528s2.681.9,2.811,1.252,1.406,3.992,1.132,4.813-3.969,4.8-3.969,4.8h-2.32s-1.848-2.516-1.848-2.591S2087.1,1198.36,2087.1,1198.36Z" transform="translate(-2073.081 -1178.284)" fill="#ffcd56"/><path d="M2118.1,1164.705a.113.113,0,0,1-.107-.083.1.1,0,0,1,.055-.118c.027-.012,2.644-1.2,4.917-1.971s4.5-1.3,4.517-1.3a.116.116,0,0,1,.14.077.1.1,0,0,1-.012.081.113.113,0,0,1-.071.048c-.022.006-2.231.529-4.494,1.3s-4.866,1.95-4.9,1.962A.126.126,0,0,1,2118.1,1164.705Z" transform="translate(-2102.109 -1144.874)" fill="#fff"/><path d="M2026.685,1164.761a.134.134,0,0,1-.048-.009c-.031-.014-3.229-1.341-4.838-1.953s-4.227-1.3-4.253-1.31a.1.1,0,0,1-.055-.123.115.115,0,0,1,.117-.077c.027.007,2.659.7,4.277,1.318s4.815,1.942,4.846,1.955a.1.1,0,0,1,.056.116.113.113,0,0,1-.1.085Z" transform="translate(-2012.476 -1144.93)" fill="#fff"/><path d="M2205.7,1215.255a1.062,1.062,0,0,0-.984.665.709.709,0,0,0-.032.265c.008.088.049.17.049.255a1.488,1.488,0,0,1-.17.48c-.133.356.076.569.081.937,0,.261,0,.538.311.648.8.286.925-1.116.994-1.53a3.255,3.255,0,0,0,.082-1.376A.436.436,0,0,0,2205.7,1215.255Z" transform="translate(-2179.282 -1193.478)" fill="#a96660"/><path d="M2007.408,1215.6a3.216,3.216,0,0,0,.083,1.376c.068.414.194,1.817.993,1.53.308-.11.308-.387.311-.648,0-.368.216-.581.081-.937a1.5,1.5,0,0,1-.169-.48c0-.085.041-.167.047-.255a.7.7,0,0,0-.031-.265,1.058,1.058,0,0,0-.984-.665A.434.434,0,0,0,2007.408,1215.6Z" transform="translate(-2003.44 -1193.478)" fill="#a96660"/><g transform="translate(4.105 22.468)"><path d="M2208.317,1223.441h-.019l-.837-.146a.115.115,0,0,1-.1-.133.118.118,0,0,1,.133-.094l.838.146a.119.119,0,0,1,.075.047.122.122,0,0,1,.018.086A.116.116,0,0,1,2208.317,1223.441Z" transform="translate(-2185.928 -1223.062)" fill="#85524f"/><path d="M2206.764,1231.457h-.02l-.9-.164a.115.115,0,0,1,.04-.227l.905.163a.114.114,0,0,1-.021.228Z" transform="translate(-2184.491 -1230.196)" fill="#85524f"/><path d="M2207.858,1239.6h-.026l-.621-.135a.115.115,0,0,1,.049-.225l.623.135a.116.116,0,0,1-.025.229Z" transform="translate(-2185.709 -1237.483)" fill="#85524f"/><path d="M2009.217,1223.4a.116.116,0,0,1-.019-.229l.838-.146a.115.115,0,0,1,.138.155.115.115,0,0,1-.1.072l-.838.146Z" transform="translate(-2009.104 -1223.023)" fill="#85524f"/><path d="M2010.235,1231.447a.115.115,0,0,1-.021-.229l.9-.163a.116.116,0,0,1,.041.227l-.9.163Z" transform="translate(-2010.005 -1230.186)" fill="#85524f"/><path d="M2011.454,1239.572a.116.116,0,0,1-.025-.229l.623-.135a.115.115,0,0,1,.049.225l-.622.135Z" transform="translate(-2011.099 -1237.456)" fill="#85524f"/></g><path d="M2080.4,1305.01a.122.122,0,0,1-.084-.033.1.1,0,0,1,0-.152c.049-.042.1-.078.137-.111.178-.14.226-.177.152-.346a2.634,2.634,0,0,0-.26-.431l-.08-.115a5.392,5.392,0,0,0-1.207-1.338,2.612,2.612,0,0,0-1.048-.461.922.922,0,0,1-.822-.644,5.683,5.683,0,0,0-1.463-1.734.1.1,0,0,1-.011-.15.122.122,0,0,1,.163-.01,5.765,5.765,0,0,1,1.53,1.831c.128.373.318.418.661.5a2.817,2.817,0,0,1,1.133.5,5.615,5.615,0,0,1,1.26,1.393l.076.112a2.766,2.766,0,0,1,.283.468c.134.312-.037.446-.216.588-.041.032-.083.066-.129.1A.122.122,0,0,1,2080.4,1305.01Z" transform="translate(-2064.383 -1269.245)" fill="#2f4178"/><path d="M2111.7,1283.1a.119.119,0,0,1-.1-.047.1.1,0,0,1,.033-.149,9.839,9.839,0,0,1,2.644-1.182,3.031,3.031,0,0,0,1.5-1.061,9,9,0,0,1,.865-.808,38.566,38.566,0,0,1,3.869-2.205.12.12,0,0,1,.143.05.1.1,0,0,1-.034.137,40.134,40.134,0,0,0-3.832,2.186,8.762,8.762,0,0,0-.846.789,3.168,3.168,0,0,1-1.647,1.128,10.056,10.056,0,0,0-2.545,1.149A.116.116,0,0,1,2111.7,1283.1Z" transform="translate(-2096.401 -1249.618)" fill="#2f4178"/><path d="M2097.293,1391.239a.114.114,0,0,1-.115-.094l-.108-.826a5.584,5.584,0,0,0-.48-.388.233.233,0,0,1-.109-.167c-.025-.193.177-.422.217-.466a.121.121,0,0,1,.162-.012.1.1,0,0,1,.012.15c-.072.078-.173.228-.163.3a.019.019,0,0,0,.011.019,6.141,6.141,0,0,1,.541.435l.029.027.116.9a.1.1,0,0,1-.025.079.116.116,0,0,1-.078.04Z" transform="translate(-2082.927 -1350.045)" fill="#5573a1"/><path d="M2042.792,1147.717a.114.114,0,0,1-.108-.081l-.446-1.686a.108.108,0,0,1,.087-.12.118.118,0,0,1,.138.069l.445,1.686a.107.107,0,0,1-.084.129A.11.11,0,0,1,2042.792,1147.717Z" transform="translate(-2034.55 -1131.017)" fill="#5573a1"/><path d="M2177.3,1147.511a.122.122,0,0,1-.1-.048.1.1,0,0,1-.01-.1c.261-.564.636-1.4.649-1.513a.1.1,0,0,1,.034-.074.115.115,0,0,1,.082-.026.113.113,0,0,1,.114.11,13.566,13.566,0,0,1-.668,1.591A.117.117,0,0,1,2177.3,1147.511Z" transform="translate(-2154.905 -1130.947)" fill="#5573a1"/><path d="M2081.927,1133.656a4.457,4.457,0,0,1-3.953-2.37.107.107,0,0,1,.063-.142.121.121,0,0,1,.154.058,4.216,4.216,0,0,0,3.74,2.241,4.534,4.534,0,0,0,3.859-2.074.12.12,0,0,1,.156-.045.1.1,0,0,1,.048.145A4.781,4.781,0,0,1,2081.927,1133.656Z" transform="translate(-2066.415 -1117.799)" fill="#5573a1"/><path d="M2105.824,1211.192c0,.25-.421.452-.942.452s-.942-.2-.942-.452.422-.452.942-.452S2105.824,1210.942,2105.824,1211.192Z" transform="translate(-2089.582 -1189.423)" fill="#fff"/><path d="M2101.657,1290.47h2.355l0,.533-2.426-.049Z" transform="translate(-2087.485 -1261.159)" fill="#fff"/><rect width="2.379" height="0.214" transform="translate(14.149 28.758)" fill="#fff"/><path d="M2123.054,1209.67h0a.115.115,0,0,1-.081-.032.1.1,0,0,1-.033-.075l.037-10.4a.11.11,0,0,1,.115-.106h0a.112.112,0,0,1,.115.107l-.037,10.4A.111.111,0,0,1,2123.054,1209.67Z" transform="translate(-2106.526 -1178.914)" fill="#edb066"/><path d="M2100.158,1209.4a.112.112,0,0,1-.115-.105l-.133-10.427a.1.1,0,0,1,.032-.076.118.118,0,0,1,.082-.032h0a.113.113,0,0,1,.116.107l.133,10.427a.1.1,0,0,1-.033.076A.118.118,0,0,1,2100.158,1209.4Z" transform="translate(-2085.987 -1178.644)" fill="#edb066"/><path d="M2023.73,1262.416l-.09-.716,1.864.632v.712Z" transform="translate(-2017.963 -1235.274)" fill="#fff"/><path d="M2163.16,1218.533a.115.115,0,0,1-.109-.07.106.106,0,0,1,.07-.137l2.132-.712a.118.118,0,0,1,.147.065.1.1,0,0,1-.07.136l-2.132.713A.157.157,0,0,1,2163.16,1218.533Z" transform="translate(-2142.296 -1195.601)" fill="#fff"/><path d="M2128.645,1183.769a.118.118,0,0,1-.082-.032.1.1,0,0,1-.033-.077l.131-9.579a.109.109,0,0,1,.074-.1l8.824-3.124a.126.126,0,0,1,.113.016.1.1,0,0,1,.042.1l-1.442,9.789a.109.109,0,0,1-.071.084l-7.513,2.916A.139.139,0,0,1,2128.645,1183.769Zm.246-9.612-.129,9.344,7.292-2.827,1.406-9.551Z" transform="translate(-2111.512 -1153.533)" fill="#fff"/><path d="M2148.921,1200.837l-.091,1.055,4.919-1.639.094-1.023Z" transform="translate(-2129.617 -1179.067)" fill="#fff"/><path d="M2176.739,1264.645a.114.114,0,0,1-.112-.087.105.105,0,0,1,.07-.119l1.555-.566a.124.124,0,0,1,.088,0,.113.113,0,0,1,.061.059.105.105,0,0,1-.066.138l-1.554.566A.131.131,0,0,1,2176.739,1264.645Z" transform="translate(-2154.407 -1237.221)" fill="#fff"/></g></g></svg>