<svg xmlns="http://www.w3.org/2000/svg" xmlns:xlink="http://www.w3.org/1999/xlink" width="107" height="89" viewBox="0 0 107 89"><defs><style>.a{fill:none;stroke:#707070;}.b{clip-path:url(#a);}.c{fill:#00baff;}.d{fill:#a96660;}.e{fill:#464a8a;}.f{fill:#13375b;}.g{fill:#85524e;}.h{fill:#fff;}.i{fill:#f8ecec;}.j{fill:#ffcd56;}.k{fill:#85524f;}.l{fill:#2f4178;}.m{fill:#5573a1;}.n{fill:#edb066;}</style><clipPath id="a"><rect class="a" width="107" height="89" transform="translate(721 2378)"/></clipPath></defs><g class="b" transform="translate(-721 -2378)"><g transform="translate(668.757 1957.669)"><g transform="translate(96.709 421.521)"><path class="c" d="M2168.391,1139.2s3.094,1.354,4.272,2.9,2.414,7.508,3.092,8.535a7.148,7.148,0,0,1,1.234,4.663c-.2,2.01.367,1.818.033,3.564s-1.189,3.853-3.478,4.234-4.6,1.387-5.557-.145a26.044,26.044,0,0,1-2.348-8.275C2165.62,1152.957,2168.391,1139.2,2168.391,1139.2Z" transform="translate(-2126.075 -1111.914)"/><path class="c" d="M2013.966,1139.39s-3.11,1.315-4.312,2.855-2.238,5.45-2.923,6.471-1.018,3.4-1.666,6.122c-.462,1.969,0,3.321.311,5.07s.842,2.916,3.125,3.324,4.584,1.441,5.56-.078a26.057,26.057,0,0,0,2.454-8.248C2016.555,1153.184,2013.966,1139.39,2013.966,1139.39Z" transform="translate(-1998.01 -1112.067)"/><path class="d" d="M2114.223,1340.292l-3.868,2.213-2.5-1.564-.384-2.423,5.837-6.188Z" transform="translate(-2079.739 -1267.69)"/><path class="c" d="M2072.956,1369.179c.115-3.126.406-8.717.755-9.3a2.85,2.85,0,0,1,1.424-.756,11.935,11.935,0,0,1,2.32-.471,14.275,14.275,0,0,1,2.883.349c.674.028.54,1.792.813,2.752s2.073,1.573,1.844,2.076-1.649,1.4-1.649,1.4-1.538,2.468-2.614,4.448c-.814,1.506-1.573,2.873-1.734,3.04-.374.387-2.118.345-2.662.245S2072.829,1372.3,2072.956,1369.179Z" transform="translate(-2052.237 -1288.905)"/><path class="c" d="M2072.956,1371.217c.117-3.125.406-8.717.755-9.3a2.837,2.837,0,0,1,1.423-.757c.057,1.971-.205,10.751-.205,10.751l3.8-.194c-.814,1.5-1.572,2.872-1.735,3.038-.373.387-2.118.345-2.661.246S2072.829,1374.343,2072.956,1371.217Z" transform="translate(-2052.237 -1290.943)"/><path class="d" d="M2083.75,1346.963l3.867,2.215,2.5-1.565.384-2.423-5.837-6.19Z" transform="translate(-2060.844 -1273.07)"/><path class="c" d="M2105.339,1380.831c1.016-2.975,2.75-8.316,2.627-8.988-.057-.316-.5-.753-1.07-1.174a11.51,11.51,0,0,0-2.01-1.195,13.9,13.9,0,0,0-2.834-.606c-.643-.191-1.152,1.507-1.751,2.321s-2.187,1.741-2.153,2.289.982,1.258.982,1.258.3,2.472.6,4.693c.223,1.681.445,3.21.539,3.419.2.483,1.867,1.009,2.416,1.095S2104.325,1383.8,2105.339,1380.831Z" transform="translate(-2072.313 -1297.149)"/><path class="c" d="M2111.57,1388.4c1.017-2.975,2.75-8.317,2.627-8.988-.056-.315-.5-.752-1.069-1.175-.76,1.834-3.662,10.171-3.662,10.171l-3.5-1.408c.222,1.681.446,3.21.538,3.42.2.483,1.868,1.01,2.415,1.094S2110.556,1391.377,2111.57,1388.4Z" transform="translate(-2078.543 -1304.72)"/><path class="e" d="M1985.064,1266.425s-6.6-1.975-9.916-.659-4.8,6.437-3.59,8.63,22.908,13.409,22.908,13.409,6.81-4.663,6.81-5.38-1.424-2.6-2.8-4.4C1997.039,1276.136,1985.064,1266.425,1985.064,1266.425Z" transform="translate(-1971.141 -1213.636)"/><path class="e" d="M2120.107,1263.859s6.905-1.678,10.258-.442c4.118,1.52,3.338,8.51,1.488,10.251-4.6,4.328-21.513,10.736-21.513,10.736s-7.79-4.927-7.79-5.644,1.754-1.089,4.364-2.391C2109.082,1275.284,2120.107,1263.859,2120.107,1263.859Z" transform="translate(-2075.821 -1211.74)"/><path class="e" d="M2043.264,1262s-.228,10.5,1.583,12.149,10.375,2.867,13.905,2.725,10.767-1.29,11.825-2.225.9-11.411.9-11.411Z" transform="translate(-2028.586 -1210.963)"/><path class="f" d="M2085.713,1002.3a5.174,5.174,0,0,0-2.178-2.684,15.048,15.048,0,0,0-7.79-1.476,11.387,11.387,0,0,0-5.613,1.441,6.619,6.619,0,0,0-2.928,4.341,15.337,15.337,0,0,0,.026,4.085,11.764,11.764,0,0,0,.31,1.87,12.16,12.16,0,0,1,.538,1.816c.027.358.408.433.787.461,1.262.089,2.537.013,3.8.12,2.393.193,4.677.8,7.045,1.139,1.593.23,3.722.34,5.086-.665a2.952,2.952,0,0,0,.949-1.741,23.442,23.442,0,0,0,.629-3.193,16.788,16.788,0,0,0-.131-3.027A8.148,8.148,0,0,0,2085.713,1002.3Z" transform="translate(-2047.556 -998.124)"/><path class="d" d="M2149.221,1063.228a1.468,1.468,0,0,1,1.8.358c1.107,1.135.053,3.582-.99,4.11a2.742,2.742,0,0,1-2.157.03Z" transform="translate(-2111.923 -1050.504)"/><path class="g" d="M2156.8,1070.271a.213.213,0,0,1-.191-.164.2.2,0,0,1,.108-.223,1.51,1.51,0,0,0,.749-1.035,1.915,1.915,0,0,0-.142-1.623.2.2,0,0,1,.063-.272.225.225,0,0,1,.29.034,2.3,2.3,0,0,1,.2,1.971,1.932,1.932,0,0,1-1,1.306A.216.216,0,0,1,2156.8,1070.271Z" transform="translate(-2118.877 -1053.611)"/><path class="d" d="M2066.617,1063.228a1.47,1.47,0,0,0-1.8.358c-1.108,1.135-.053,3.582.992,4.11a2.734,2.734,0,0,0,2.154.03Z" transform="translate(-2045.39 -1050.504)"/><path class="g" d="M2067.744,1070.23a.222.222,0,0,1-.083-.016,1.928,1.928,0,0,1-1-1.305,2.316,2.316,0,0,1,.2-1.971.226.226,0,0,1,.291-.034.2.2,0,0,1,.063.272,1.905,1.905,0,0,0-.142,1.622,1.536,1.536,0,0,0,.75,1.037.2.2,0,0,1-.083.395Z" transform="translate(-2047.137 -1053.571)"/><path class="d" d="M2090.15,1024.823a9.389,9.389,0,0,1-3.486,7.077,7.424,7.424,0,0,1-9.309.218,10.144,10.144,0,0,1-3.556-5.5c-.719-2.147-.717-10.162-.125-10.406,0,0,3.363-3.12,4.2-3.4s5.735.665,7.427.5,2.663.727,4.228,2.276S2090.312,1022.906,2090.15,1024.823Z" transform="translate(-2052.476 -1009.931)"/><path class="d" d="M2074.531,1100.234s.13,3.365.012,4.018-4.474,2.572-4.474,2.572l9.067,6.82,9.672-6.708s-4.448-2.154-4.651-2.652a35.781,35.781,0,0,1-.271-4.284Z" transform="translate(-2049.946 -1080.296)"/><path class="g" d="M2097.047,1114.045c-1.83,0-4.524-1.866-4.638-1.946a.2.2,0,0,1,.032-.369.23.23,0,0,1,.225.036c.026.019,2.7,1.866,4.38,1.866,1.556,0,4.155-1.634,4.182-1.652a.225.225,0,0,1,.29.065.2.2,0,0,1-.05.28C2101.357,1112.394,2098.736,1114.045,2097.047,1114.045Z" transform="translate(-2067.659 -1089.745)"/><path class="f" d="M2087.825,1016a6.154,6.154,0,0,0-1.26-3.491c-.984-1.106-2.472-1.2-3.878-1.4-.83-.118-1.625-.377-2.44-.532a12.784,12.784,0,0,0-2.562-.194q-1.348.032-2.684.194a5.065,5.065,0,0,0-2.1.526,7.216,7.216,0,0,0-2.987,3.4c-.563,1.636-.157,3.41-.278,5.1a.206.206,0,0,0-.021-.06c-.07-.17-.362-.1-.293.075.37.919,1.5,1.681,1.591.238a3.452,3.452,0,0,1,.285-1.547c.183-.318.449-.5.545-.857.123-.477-.1-1.3.135-1.708.3-.516,1.442-.914,1.973-1.16a2.809,2.809,0,0,1,2.2.046c.747.193,1.5.433,2.258.58a12.766,12.766,0,0,0,1.745-.06,5.915,5.915,0,0,0,1.626-.311,3.206,3.206,0,0,1,2.114-.019,6.737,6.737,0,0,0,.61.309c.57.273.327.824.706,1.259a2.056,2.056,0,0,1,.722,1.23c.049.34.091.68.172,1.017s.6,2.667,1.425,1.818c.346-.354.327-1.126.379-1.584A12.513,12.513,0,0,0,2087.825,1016Z" transform="translate(-2049.341 -1008.008)"/><path class="h" d="M2082.386,1122.38a12.008,12.008,0,0,0,1.765-1.192c.021-.166,4.476.9,4.8.9s4.544-1.172,4.761-1.089,2.481,1.854,2.481,1.854-5.256,5.956-5.96,5.837-8.094-4.933-8.094-4.933Z" transform="translate(-2059.562 -1097.232)"/><path class="c" d="M2049.916,1127.711c.37.4,3.254,3.8,6.122,3.849s6.57-3.589,6.99-3.692a32.387,32.387,0,0,1,6.165,2.029c1.056.561,1.535,15.365,1.627,16.466s-13.183,7.387-14.047,7.292-15.663-4.686-15.663-4.686.407-17.817.957-18.535S2049.545,1127.307,2049.916,1127.711Z" transform="translate(-2026.878 -1102.61)"/><path class="i" d="M2092.224,1131.505c-.107,0-.563-.12-4.392-2.322a.2.2,0,0,1-.075-.282.23.23,0,0,1,.3-.069c1.708.986,3.645,2.059,4.1,2.243a16.061,16.061,0,0,0,1.034-2.349.212.212,0,0,1,.111-.119.237.237,0,0,1,.166-.008.2.2,0,0,1,.131.263c-.975,2.609-1.219,2.634-1.364,2.646Z" transform="translate(-2064.014 -1103.354)"/><path class="i" d="M2117.116,1131.014h-.03c-.119-.016-.432-.068-1.278-2.514a.207.207,0,0,1,.139-.261.222.222,0,0,1,.166.011.211.211,0,0,1,.107.12,11.77,11.77,0,0,0,.952,2.213c.454-.151,2.589-1.318,4.464-2.4a.224.224,0,0,1,.3.07.2.2,0,0,1-.074.283C2117.855,1130.848,2117.264,1131.014,2117.116,1131.014ZM2117.207,1130.628ZM2117.116,1130.606Z" transform="translate(-2086.374 -1103.006)"/><path class="i" d="M2115.241,1138.329a.211.211,0,0,1-.216-.2v-.671a.2.2,0,0,1,.1-.2.227.227,0,0,1,.231,0,.2.2,0,0,1,.1.2v.671A.213.213,0,0,1,2115.241,1138.329Z" transform="translate(-2085.758 -1110.322)"/><path class="i" d="M2009,1159.151a13.213,13.213,0,0,1,1.7-1.221,67.2,67.2,0,0,1,9.561,2.8c5.449,2.127,9.559,3.909,9.559,3.909s6.605-3.048,10.333-4.269a67.752,67.752,0,0,1,8.68-2.222,7.105,7.105,0,0,1,2.15.9s-8.34,6.136-8.675,6.277-17.8,2.477-17.971,2.477S2009,1159.151,2009,1159.151Z" transform="translate(-2001.3 -1127.021)"/><path class="j" d="M2005.83,1160.79l19.326,7.266.348,20.949-16.466-6.548Z" transform="translate(-1998.774 -1129.328)"/><path class="j" d="M2143.371,1160.79l-19.325,7.266-.046,20.949,16.165-6.548Z" transform="translate(-2092.907 -1129.328)"/><path class="j" d="M2088.572,1198.36h4.756s5.043,1.741,5.288,2.415,2.646,7.7,2.131,9.284-7.467,9.255-7.467,9.255h-4.364s-3.476-4.855-3.476-5S2088.572,1198.36,2088.572,1198.36Z" transform="translate(-2062.19 -1159.631)"/><path class="h" d="M2118.193,1167.937a.213.213,0,0,1-.2-.159.2.2,0,0,1,.1-.227c.05-.024,4.973-2.31,9.251-3.8s8.456-2.514,8.5-2.514a.217.217,0,0,1,.264.149.2.2,0,0,1-.022.156.219.219,0,0,1-.133.094c-.043.012-4.2,1.02-8.455,2.515s-9.153,3.762-9.211,3.785A.235.235,0,0,1,2118.193,1167.937Z" transform="translate(-2088.117 -1129.681)"/><path class="h" d="M2034.79,1167.987a.237.237,0,0,1-.089-.017c-.06-.027-6.075-2.586-9.1-3.768s-7.952-2.515-8-2.526a.2.2,0,0,1-.1-.237.217.217,0,0,1,.22-.149c.051.014,5,1.354,8.045,2.542s9.058,3.746,9.117,3.771a.2.2,0,0,1,.105.223.212.212,0,0,1-.193.163Z" transform="translate(-2008.06 -1129.73)"/><path class="d" d="M2206.737,1215.263a2,2,0,0,0-1.851,1.282,1.386,1.386,0,0,0-.059.512c.013.169.092.327.092.492a2.934,2.934,0,0,1-.321.925c-.249.688.144,1.1.152,1.808,0,.5,0,1.036.586,1.25,1.5.553,1.739-2.153,1.868-2.952a6.429,6.429,0,0,0,.154-2.654A.83.83,0,0,0,2206.737,1215.263Z" transform="translate(-2157.046 -1173.252)"/><path class="d" d="M2007.455,1215.926a6.38,6.38,0,0,0,.155,2.654c.128.8.366,3.5,1.867,2.952.58-.213.58-.745.587-1.25,0-.71.406-1.12.151-1.808a2.928,2.928,0,0,1-.319-.925c0-.165.077-.323.089-.492a1.366,1.366,0,0,0-.059-.512,1.991,1.991,0,0,0-1.851-1.282A.829.829,0,0,0,2007.455,1215.926Z" transform="translate(-1999.99 -1173.252)"/><g transform="translate(7.722 43.396)"><path class="k" d="M2209.157,1223.771h-.036l-1.575-.275a.218.218,0,0,1-.179-.25.22.22,0,0,1,.252-.177l1.578.275a.22.22,0,0,1,.14.089.226.226,0,0,1,.035.161A.218.218,0,0,1,2209.157,1223.771Z" transform="translate(-2167.037 -1223.058)"/><path class="k" d="M2207.654,1231.8h-.037l-1.7-.308a.217.217,0,0,1,.077-.426l1.7.307a.215.215,0,0,1-.041.429Z" transform="translate(-2165.754 -1229.43)"/><path class="k" d="M2208.508,1239.918h-.048l-1.168-.254a.217.217,0,1,1,.091-.424l1.171.255a.218.218,0,0,1-.047.429Z" transform="translate(-2166.841 -1235.938)"/><path class="k" d="M2009.317,1223.737a.218.218,0,0,1-.036-.432l1.576-.274a.217.217,0,0,1,.258.292.215.215,0,0,1-.185.135l-1.576.275Z" transform="translate(-2009.104 -1223.023)"/><path class="k" d="M2010.341,1231.792a.216.216,0,0,1-.039-.43l1.7-.306a.218.218,0,0,1,.077.427l-1.7.306Z" transform="translate(-2009.908 -1229.421)"/><path class="k" d="M2011.555,1239.895a.218.218,0,0,1-.047-.43l1.171-.254a.216.216,0,1,1,.092.423l-1.169.254Z" transform="translate(-2010.886 -1235.914)"/></g><path class="l" d="M2084.556,1310.17a.228.228,0,0,1-.159-.065.2.2,0,0,1,0-.292c.091-.081.179-.151.258-.215.333-.271.425-.342.286-.669a5.122,5.122,0,0,0-.489-.832l-.151-.221a10.314,10.314,0,0,0-2.271-2.582,4.84,4.84,0,0,0-1.969-.89,1.743,1.743,0,0,1-1.548-1.242c-.478-1.435-2.729-3.327-2.752-3.345a.2.2,0,0,1-.02-.29.224.224,0,0,1,.305-.02c.1.081,2.365,1.987,2.88,3.532.241.72.6.806,1.243.968a5.242,5.242,0,0,1,2.131.967,10.793,10.793,0,0,1,2.37,2.687l.143.216a5.387,5.387,0,0,1,.533.9c.252.6-.07.861-.406,1.136-.077.062-.156.126-.243.193A.227.227,0,0,1,2084.556,1310.17Z" transform="translate(-2054.422 -1241.175)"/><path class="l" d="M2111.8,1288.173a.221.221,0,0,1-.181-.091.2.2,0,0,1,.061-.286c.137-.085,3.332-2.084,4.974-2.28.976-.116,1.876-1.054,2.83-2.047a16.966,16.966,0,0,1,1.628-1.559,72.05,72.05,0,0,1,7.277-4.254.224.224,0,0,1,.269.1.2.2,0,0,1-.065.265,75.272,75.272,0,0,0-7.208,4.217,16.92,16.92,0,0,0-1.593,1.522c-1.017,1.05-1.959,2.042-3.1,2.176-1.541.193-4.753,2.2-4.786,2.216A.225.225,0,0,1,2111.8,1288.173Z" transform="translate(-2083.02 -1223.58)"/><path class="m" d="M2098.009,1393.078a.216.216,0,0,1-.216-.182l-.2-1.594a10.55,10.55,0,0,0-.9-.748.457.457,0,0,1-.2-.323,1.438,1.438,0,0,1,.407-.9.224.224,0,0,1,.3-.022.2.2,0,0,1,.023.29c-.134.15-.326.44-.306.58a.037.037,0,0,0,.022.037,11.543,11.543,0,0,1,1.017.839l.056.052.218,1.741a.207.207,0,0,1-.046.153.219.219,0,0,1-.146.075Z" transform="translate(-2070.985 -1313.609)"/><path class="m" d="M2043.281,1149.474a.218.218,0,0,1-.2-.157l-.837-3.253a.208.208,0,0,1,.163-.232.22.22,0,0,1,.258.134l.837,3.253a.207.207,0,0,1-.158.25A.254.254,0,0,1,2043.281,1149.474Z" transform="translate(-2027.776 -1117.258)"/><path class="m" d="M2177.406,1149.149a.228.228,0,0,1-.185-.092.2.2,0,0,1-.02-.2c.492-1.088,1.2-2.707,1.221-2.918a.192.192,0,0,1,.064-.142.212.212,0,0,1,.153-.051.215.215,0,0,1,.216.212,26.58,26.58,0,0,1-1.256,3.07A.218.218,0,0,1,2177.406,1149.149Z" transform="translate(-2135.272 -1117.195)"/><path class="m" d="M2085.419,1136a8.39,8.39,0,0,1-7.438-4.572.207.207,0,0,1,.119-.275.225.225,0,0,1,.289.112,7.942,7.942,0,0,0,7.037,4.323,8.506,8.506,0,0,0,7.259-4,.223.223,0,0,1,.293-.086.2.2,0,0,1,.09.279A8.97,8.97,0,0,1,2085.419,1136Z" transform="translate(-2056.237 -1105.409)"/><path class="h" d="M2107.484,1211.612c0,.483-.793.872-1.772.872s-1.772-.387-1.772-.872.794-.872,1.772-.872S2107.484,1211.13,2107.484,1211.612Z" transform="translate(-2076.928 -1169.617)"/><path class="h" d="M2101.717,1290.47h4.431l.007,1.028-4.564-.094Z" transform="translate(-2075.056 -1233.926)"/><rect class="h" width="4.475" height="0.412" transform="translate(26.618 55.478)"/><path class="n" d="M2123.154,1219.529h0a.217.217,0,0,1-.152-.061.191.191,0,0,1-.062-.146l.069-20.057a.211.211,0,0,1,.216-.205h0a.212.212,0,0,1,.217.207l-.069,20.057A.211.211,0,0,1,2123.154,1219.529Z" transform="translate(-2092.063 -1160.195)"/><path class="n" d="M2100.377,1219.287a.213.213,0,0,1-.217-.2l-.25-20.115a.2.2,0,0,1,.06-.146.219.219,0,0,1,.153-.062h0a.214.214,0,0,1,.219.206l.25,20.114a.2.2,0,0,1-.061.146A.222.222,0,0,1,2100.377,1219.287Z" transform="translate(-2073.717 -1159.954)"/><path class="h" d="M2023.809,1263.081l-.169-1.381,3.507,1.219v1.373Z" transform="translate(-2012.961 -1210.721)"/><path class="h" d="M2163.262,1219.393a.214.214,0,0,1-.2-.136.2.2,0,0,1,.131-.265l4.01-1.373a.219.219,0,0,1,.276.124.2.2,0,0,1-.13.263l-4.01,1.376A.292.292,0,0,1,2163.262,1219.393Z" transform="translate(-2124.01 -1175.156)"/><path class="h" d="M2128.748,1195.772a.221.221,0,0,1-.156-.061.2.2,0,0,1-.062-.148l.247-18.48a.209.209,0,0,1,.139-.193l16.6-6.027a.231.231,0,0,1,.213.031.2.2,0,0,1,.08.189l-2.712,18.885a.208.208,0,0,1-.134.162l-14.133,5.625A.253.253,0,0,1,2128.748,1195.772Zm.462-18.542-.243,18.026,13.717-5.454,2.644-18.424Z" transform="translate(-2096.516 -1137.443)"/><path class="h" d="M2149,1202.329l-.171,2.036,9.253-3.162.177-1.973Z" transform="translate(-2112.687 -1160.333)"/><path class="h" d="M2176.839,1265.37a.214.214,0,0,1-.21-.168.206.206,0,0,1,.131-.23l2.924-1.093a.228.228,0,0,1,.167,0,.212.212,0,0,1,.115.113.2.2,0,0,1-.123.267l-2.924,1.093A.244.244,0,0,1,2176.839,1265.37Z" transform="translate(-2134.828 -1212.467)"/></g></g></g></svg>