<svg width="2182" height="541" viewBox="0 0 2182 541" fill="none" xmlns="http://www.w3.org/2000/svg">
<path fill-rule="evenodd" clip-rule="evenodd" d="M338.916 97.73C338.892 96.7536 338.63 95.7978 338.154 94.9451C337.678 94.0924 337.002 93.3683 336.183 92.8352C335.365 92.3022 334.429 91.9762 333.457 91.8854C332.484 91.7947 331.504 91.9418 330.601 92.3142L247.771 127.74C246.698 128.2 245.782 128.963 245.137 129.937C244.491 130.91 244.145 132.051 244.14 133.219V145.962C244.14 146.761 244.338 147.547 244.716 148.251C245.094 148.954 245.639 149.553 246.305 149.995C246.97 150.436 247.734 150.706 248.53 150.781C249.325 150.856 250.126 150.733 250.862 150.423L334.679 114.71C335.998 114.151 337.122 113.215 337.91 112.019C338.697 110.823 339.114 109.42 339.107 107.988L338.916 97.73Z" fill="#1DA1F2"/>
<path fill-rule="evenodd" clip-rule="evenodd" d="M228.848 127.741L145.732 92.2515C145.003 91.9098 144.211 91.7253 143.406 91.71C142.265 91.7157 141.153 92.0715 140.22 92.7294C139.38 93.2477 138.689 93.9752 138.214 94.8408C137.74 95.7063 137.498 96.6803 137.512 97.6674V107.225C137.511 108.799 137.972 110.339 138.839 111.653C139.705 112.967 140.939 113.997 142.387 114.616L226.14 150.392C226.839 150.678 227.597 150.789 228.349 150.715C229.1 150.64 229.822 150.382 230.451 149.964C231.079 149.546 231.596 148.98 231.955 148.316C232.315 147.652 232.506 146.91 232.512 146.155V133.221C232.508 132.048 232.159 130.903 231.507 129.928C230.855 128.953 229.93 128.192 228.848 127.741V127.741Z" fill="#1DA1F2"/>
<path fill-rule="evenodd" clip-rule="evenodd" d="M247.836 164.728C246.769 165.172 245.86 165.925 245.224 166.89C244.588 167.855 244.255 168.988 244.268 170.144V184.161C244.293 184.659 244.434 185.144 244.681 185.577C244.927 186.01 245.272 186.38 245.687 186.656C246.102 186.931 246.576 187.106 247.071 187.165C247.566 187.224 248.068 187.166 248.537 186.996L339.076 148.257L345.066 145.741L351.023 143.192L369.5 135.132C370.902 134.534 372.095 133.534 372.929 132.258C373.762 130.982 374.199 129.488 374.184 127.964V119.681C374.196 118.705 373.964 117.742 373.507 116.879C373.051 116.016 372.385 115.282 371.571 114.743C370.628 114.108 369.523 113.754 368.385 113.724C367.559 113.725 366.743 113.91 365.996 114.265L350.959 120.637L345.002 123.154L339.045 125.702L247.836 164.728Z" fill="#1DA1F2"/>
<path fill-rule="evenodd" clip-rule="evenodd" d="M228.848 164.727L137.417 125.574L131.459 123.089L125.502 120.509L110.401 114.137C109.661 113.839 108.873 113.677 108.076 113.66C107.299 113.651 106.528 113.796 105.808 114.087C105.088 114.377 104.432 114.807 103.878 115.352C103.325 115.897 102.884 116.545 102.582 117.261C102.28 117.976 102.122 118.745 102.118 119.521V128.76C102.11 130.013 102.472 131.24 103.157 132.288C103.843 133.336 104.822 134.159 105.973 134.654L125.406 142.937L131.364 145.517L137.353 148.066L227.446 186.55C227.986 186.776 228.572 186.869 229.155 186.82C229.737 186.771 230.3 186.583 230.794 186.27C231.288 185.957 231.7 185.53 231.993 185.024C232.287 184.518 232.454 183.948 232.48 183.364V170.175C232.49 169.008 232.148 167.865 231.501 166.893C230.853 165.922 229.929 165.167 228.848 164.727V164.727Z" fill="#1DA1F2"/>
<path fill-rule="evenodd" clip-rule="evenodd" d="M410.756 139.56C410.773 138.571 410.536 137.595 410.068 136.725C409.599 135.855 408.915 135.119 408.08 134.59C407.14 133.946 406.033 133.592 404.894 133.57C404.09 133.586 403.297 133.77 402.569 134.112L386.162 141.089L380.205 143.669L374.247 146.218L351.055 156.126L345.097 158.674L339.108 161.255L247.995 200.185C246.917 200.628 245.995 201.384 245.348 202.354C244.701 203.325 244.358 204.466 244.363 205.632V264.059C244.381 263.901 244.381 263.74 244.363 263.581V272.47V278.841V350.553C244.348 351.036 244.402 351.519 244.523 351.987V360.907V367.278V439.34C244.5 440.352 244.751 441.352 245.251 442.232C245.75 443.113 246.478 443.842 247.358 444.342C248.204 444.888 249.178 445.205 250.183 445.261C251.189 445.317 252.191 445.11 253.093 444.661L408.813 365.813C409.791 365.316 410.608 364.552 411.172 363.611C411.735 362.67 412.022 361.589 411.999 360.493L410.756 139.56Z" fill="#1DA1F2"/>
<path fill-rule="evenodd" clip-rule="evenodd" d="M228.849 200.185L137.321 161L131.364 158.451L125.375 155.935L102.119 145.995L96.1614 143.414L90.204 140.866L73.861 133.889C73.1027 133.577 72.2914 133.415 71.4717 133.411C70.3374 133.43 69.2321 133.773 68.2859 134.399C67.4626 134.925 66.7856 135.65 66.3178 136.508C65.8499 137.366 65.6065 138.328 65.6099 139.305L64.9408 360.493C64.9286 361.587 65.2199 362.664 65.7823 363.603C66.3446 364.542 67.156 365.307 68.1266 365.813L223.847 444.661C224.759 445.102 225.766 445.309 226.778 445.265C227.79 445.22 228.775 444.925 229.645 444.406C230.518 443.879 231.241 443.137 231.743 442.249C232.246 441.362 232.51 440.36 232.512 439.34V205.632C232.515 204.463 232.167 203.319 231.515 202.348C230.862 201.377 229.933 200.624 228.849 200.185V200.185Z" fill="#1DA1F2"/>
<path fill-rule="evenodd" clip-rule="evenodd" d="M202.12 353.228C201.128 353.813 199.998 354.124 198.846 354.131C197.694 354.138 196.561 353.84 195.561 353.267C194.561 352.695 193.731 351.868 193.154 350.871C192.577 349.873 192.274 348.741 192.276 347.589V289.545V231.5C192.276 230.351 192.578 229.222 193.151 228.226C193.724 227.23 194.548 226.402 195.541 225.825C196.535 225.248 197.662 224.941 198.811 224.937C199.96 224.932 201.09 225.229 202.089 225.797L252.392 254.756L302.695 283.715C303.687 284.292 304.51 285.12 305.081 286.115C305.653 287.11 305.954 288.238 305.954 289.385C305.954 290.533 305.653 291.661 305.081 292.656C304.51 293.651 303.687 294.478 302.695 295.056L252.456 324.142L202.12 353.228Z" fill="white"/>
<path d="M683.36 184H613.6V380H570.56V184H500.8V148.64H683.36V184Z" fill="#1F3965"/>
<path d="M774.717 279.04C774.717 273.92 773.971 269.12 772.477 264.64C771.091 260.054 768.957 256.054 766.077 252.64C763.197 249.227 759.517 246.56 755.037 244.64C750.664 242.614 745.544 241.6 739.677 241.6C728.264 241.6 719.251 244.854 712.637 251.36C706.131 257.867 701.971 267.094 700.157 279.04H774.717ZM699.357 302.88C699.997 311.307 701.491 318.614 703.837 324.8C706.184 330.88 709.277 335.947 713.117 340C716.957 343.947 721.491 346.934 726.717 348.96C732.051 350.88 737.917 351.84 744.317 351.84C750.717 351.84 756.211 351.094 760.797 349.6C765.491 348.107 769.544 346.454 772.957 344.64C776.477 342.827 779.517 341.174 782.077 339.68C784.744 338.187 787.304 337.44 789.757 337.44C793.064 337.44 795.517 338.667 797.117 341.12L808.477 355.52C804.104 360.64 799.197 364.96 793.757 368.48C788.317 371.894 782.611 374.667 776.637 376.8C770.771 378.827 764.744 380.267 758.557 381.12C752.477 381.974 746.557 382.4 740.797 382.4C729.384 382.4 718.771 380.534 708.957 376.8C699.144 372.96 690.611 367.36 683.357 360C676.104 352.534 670.397 343.36 666.237 332.48C662.077 321.494 659.997 308.8 659.997 294.4C659.997 283.2 661.811 272.694 665.437 262.88C669.064 252.96 674.237 244.374 680.957 237.12C687.784 229.76 696.051 223.947 705.757 219.68C715.571 215.414 726.611 213.28 738.877 213.28C749.224 213.28 758.771 214.934 767.517 218.24C776.264 221.547 783.784 226.4 790.077 232.8C796.371 239.094 801.277 246.88 804.797 256.16C808.424 265.334 810.237 275.84 810.237 287.68C810.237 293.654 809.597 297.707 808.317 299.84C807.037 301.867 804.584 302.88 800.957 302.88H699.357Z" fill="#1F3965"/>
<path d="M926.615 309.92C915.201 310.454 905.601 311.467 897.815 312.96C890.028 314.347 883.788 316.16 879.095 318.4C874.401 320.64 871.041 323.254 869.015 326.24C866.988 329.227 865.975 332.48 865.975 336C865.975 342.934 868.001 347.894 872.055 350.88C876.215 353.867 881.601 355.36 888.215 355.36C896.321 355.36 903.308 353.92 909.175 351.04C915.148 348.054 920.961 343.574 926.615 337.6V309.92ZM836.055 238.72C854.935 221.44 877.655 212.8 904.215 212.8C913.815 212.8 922.401 214.4 929.975 217.6C937.548 220.694 943.948 225.067 949.175 230.72C954.401 236.267 958.348 242.934 961.015 250.72C963.788 258.507 965.175 267.04 965.175 276.32V380H947.255C943.521 380 940.641 379.467 938.615 378.4C936.588 377.227 934.988 374.934 933.815 371.52L930.295 359.68C926.135 363.414 922.081 366.72 918.135 369.6C914.188 372.374 910.081 374.72 905.815 376.64C901.548 378.56 896.961 380 892.055 380.96C887.255 382.027 881.921 382.56 876.055 382.56C869.121 382.56 862.721 381.654 856.855 379.84C850.988 377.92 845.921 375.094 841.655 371.36C837.388 367.627 834.081 362.987 831.735 357.44C829.388 351.894 828.215 345.44 828.215 338.08C828.215 333.92 828.908 329.814 830.295 325.76C831.681 321.6 833.921 317.654 837.015 313.92C840.215 310.187 844.321 306.667 849.335 303.36C854.348 300.054 860.481 297.174 867.735 294.72C875.095 292.267 883.628 290.294 893.335 288.8C903.041 287.2 914.135 286.24 926.615 285.92V276.32C926.615 265.334 924.268 257.227 919.575 252C914.881 246.667 908.108 244 899.255 244C892.855 244 887.521 244.747 883.255 246.24C879.095 247.734 875.415 249.44 872.215 251.36C869.015 253.174 866.081 254.827 863.415 256.32C860.855 257.814 857.975 258.56 854.775 258.56C852.001 258.56 849.655 257.867 847.735 256.48C845.815 254.987 844.268 253.28 843.095 251.36L836.055 238.72Z" fill="#1F3965"/>
<path d="M1119.99 250.56C1118.82 252.054 1117.65 253.227 1116.47 254.08C1115.41 254.934 1113.81 255.36 1111.67 255.36C1109.65 255.36 1107.67 254.774 1105.75 253.6C1103.83 252.32 1101.54 250.934 1098.87 249.44C1096.21 247.84 1093.01 246.454 1089.27 245.28C1085.65 244 1081.11 243.36 1075.67 243.36C1068.74 243.36 1062.66 244.64 1057.43 247.2C1052.21 249.654 1047.83 253.227 1044.31 257.92C1040.9 262.614 1038.34 268.32 1036.63 275.04C1034.93 281.654 1034.07 289.174 1034.07 297.6C1034.07 306.347 1034.98 314.134 1036.79 320.96C1038.71 327.787 1041.43 333.547 1044.95 338.24C1048.47 342.827 1052.74 346.347 1057.75 348.8C1062.77 351.147 1068.42 352.32 1074.71 352.32C1081.01 352.32 1086.07 351.574 1089.91 350.08C1093.86 348.48 1097.17 346.774 1099.83 344.96C1102.5 343.04 1104.79 341.334 1106.71 339.84C1108.74 338.24 1110.98 337.44 1113.43 337.44C1116.63 337.44 1119.03 338.667 1120.63 341.12L1131.99 355.52C1127.62 360.64 1122.87 364.96 1117.75 368.48C1112.63 371.894 1107.3 374.667 1101.75 376.8C1096.31 378.827 1090.66 380.267 1084.79 381.12C1079.03 381.974 1073.27 382.4 1067.51 382.4C1057.38 382.4 1047.83 380.534 1038.87 376.8C1029.91 372.96 1022.07 367.414 1015.35 360.16C1008.63 352.907 1003.3 344.054 999.355 333.6C995.515 323.04 993.595 311.04 993.595 297.6C993.595 285.547 995.301 274.4 998.715 264.16C1002.23 253.814 1007.35 244.907 1014.07 237.44C1020.79 229.867 1029.11 223.947 1039.03 219.68C1048.95 215.414 1060.37 213.28 1073.27 213.28C1085.54 213.28 1096.26 215.254 1105.43 219.2C1114.71 223.147 1123.03 228.8 1130.39 236.16L1119.99 250.56Z" fill="#1F3965"/>
<path d="M1196.29 233.44C1202.69 227.467 1209.73 222.614 1217.41 218.88C1225.09 215.147 1234.1 213.28 1244.45 213.28C1253.41 213.28 1261.36 214.827 1268.29 217.92C1275.22 220.907 1280.98 225.174 1285.57 230.72C1290.26 236.16 1293.78 242.72 1296.13 250.4C1298.58 257.974 1299.81 266.347 1299.81 275.52V380H1260.29V275.52C1260.29 265.494 1258 257.76 1253.41 252.32C1248.82 246.774 1241.84 244 1232.45 244C1225.62 244 1219.22 245.547 1213.25 248.64C1207.28 251.734 1201.62 255.947 1196.29 261.28V380H1156.77V142.24H1196.29V233.44Z" fill="#1F3965"/>
<path d="M1337.39 380V215.84H1361.55C1366.67 215.84 1370.03 218.24 1371.63 223.04L1374.19 235.2C1377.07 232 1380.06 229.067 1383.15 226.4C1386.35 223.734 1389.71 221.44 1393.23 219.52C1396.86 217.6 1400.7 216.107 1404.75 215.04C1408.91 213.867 1413.45 213.28 1418.35 213.28C1428.7 213.28 1437.18 216.107 1443.79 221.76C1450.51 227.307 1455.53 234.72 1458.83 244C1461.39 238.56 1464.59 233.92 1468.43 230.08C1472.27 226.134 1476.49 222.934 1481.07 220.48C1485.66 218.027 1490.51 216.214 1495.63 215.04C1500.86 213.867 1506.09 213.28 1511.31 213.28C1520.38 213.28 1528.43 214.667 1535.47 217.44C1542.51 220.214 1548.43 224.267 1553.23 229.6C1558.03 234.934 1561.66 241.44 1564.11 249.12C1566.67 256.8 1567.95 265.6 1567.95 275.52V380H1528.43V275.52C1528.43 265.067 1526.14 257.227 1521.55 252C1516.97 246.667 1510.25 244 1501.39 244C1497.34 244 1493.55 244.694 1490.03 246.08C1486.62 247.467 1483.58 249.494 1480.91 252.16C1478.35 254.72 1476.33 257.974 1474.83 261.92C1473.34 265.867 1472.59 270.4 1472.59 275.52V380H1432.91V275.52C1432.91 264.534 1430.67 256.534 1426.19 251.52C1421.82 246.507 1415.37 244 1406.83 244C1401.07 244 1395.69 245.44 1390.67 248.32C1385.77 251.094 1381.18 254.934 1376.91 259.84V380H1337.39Z" fill="#1F3965"/>
<path d="M1646.48 215.84V380H1606.8V215.84H1646.48ZM1651.92 168C1651.92 171.414 1651.23 174.614 1649.84 177.6C1648.45 180.587 1646.59 183.2 1644.24 185.44C1642 187.68 1639.33 189.494 1636.24 190.88C1633.15 192.16 1629.84 192.8 1626.32 192.8C1622.91 192.8 1619.65 192.16 1616.56 190.88C1613.57 189.494 1610.96 187.68 1608.72 185.44C1606.48 183.2 1604.67 180.587 1603.28 177.6C1602 174.614 1601.36 171.414 1601.36 168C1601.36 164.48 1602 161.174 1603.28 158.08C1604.67 154.987 1606.48 152.32 1608.72 150.08C1610.96 147.84 1613.57 146.08 1616.56 144.8C1619.65 143.414 1622.91 142.72 1626.32 142.72C1629.84 142.72 1633.15 143.414 1636.24 144.8C1639.33 146.08 1642 147.84 1644.24 150.08C1646.59 152.32 1648.45 154.987 1649.84 158.08C1651.23 161.174 1651.92 164.48 1651.92 168Z" fill="#1F3965"/>
<path d="M1723.73 236C1727.04 232.694 1730.5 229.654 1734.13 226.88C1737.86 224 1741.76 221.6 1745.81 219.68C1749.97 217.654 1754.4 216.107 1759.09 215.04C1763.78 213.867 1768.9 213.28 1774.45 213.28C1783.41 213.28 1791.36 214.827 1798.29 217.92C1805.22 220.907 1810.98 225.174 1815.57 230.72C1820.26 236.16 1823.78 242.72 1826.13 250.4C1828.58 257.974 1829.81 266.347 1829.81 275.52V380H1790.29V275.52C1790.29 265.494 1788 257.76 1783.41 252.32C1778.82 246.774 1771.84 244 1762.45 244C1755.62 244 1749.22 245.547 1743.25 248.64C1737.28 251.734 1731.62 255.947 1726.29 261.28V380H1686.77V215.84H1710.93C1716.05 215.84 1719.41 218.24 1721.01 223.04L1723.73 236Z" fill="#1F3965"/>
<path d="M1919.93 382.56C1905.63 382.56 1894.65 378.56 1886.97 370.56C1879.39 362.454 1875.61 351.307 1875.61 337.12V245.44H1858.81C1856.67 245.44 1854.86 244.747 1853.37 243.36C1851.87 241.974 1851.13 239.894 1851.13 237.12V221.44L1877.53 217.12L1885.85 172.32C1886.38 170.187 1887.39 168.534 1888.89 167.36C1890.38 166.187 1892.3 165.6 1894.65 165.6H1915.13V217.28H1958.97V245.44H1915.13V334.4C1915.13 339.52 1916.35 343.52 1918.81 346.4C1921.37 349.28 1924.83 350.72 1929.21 350.72C1931.66 350.72 1933.69 350.454 1935.29 349.92C1936.99 349.28 1938.43 348.64 1939.61 348C1940.89 347.36 1942.01 346.774 1942.97 346.24C1943.93 345.6 1944.89 345.28 1945.85 345.28C1947.02 345.28 1947.98 345.6 1948.73 346.24C1949.47 346.774 1950.27 347.627 1951.13 348.8L1962.97 368C1957.21 372.8 1950.59 376.427 1943.13 378.88C1935.66 381.334 1927.93 382.56 1919.93 382.56Z" fill="#1F3965"/>
</svg>
